<?xml version="1.0" standalone="no"?>
<!DOCTYPE svg PUBLIC "-//W3C//DTD SVG 1.1//EN" "http://www.w3.org/Graphics/SVG/1.1/DTD/svg11.dtd" >
<svg xmlns="http://www.w3.org/2000/svg">
<metadata></metadata>
<defs>
<font id="overseer_obliqueoblique" horiz-adv-x="825" >
<font-face units-per-em="2048" ascent="1638" descent="-410" />
<missing-glyph horiz-adv-x="800" />
<glyph horiz-adv-x="2048" />
<glyph horiz-adv-x="2048" />
<glyph unicode="&#xd;" horiz-adv-x="508" />
<glyph unicode=" "  horiz-adv-x="800" />
<glyph unicode="&#x09;" horiz-adv-x="800" />
<glyph unicode="&#xa0;" horiz-adv-x="800" />
<glyph unicode="!" horiz-adv-x="375" d="M0 0l50 200h275l-50 -200h-275zM94 375l256 1025h275l-256 -1025h-275z" />
<glyph unicode="&#x22;" horiz-adv-x="750" d="M300 1200l50 200h275l-50 -200q-44 -175 -194 -175l44 175h-125zM675 1200l50 200h275l-50 -200q-44 -175 -194 -175l44 175h-125z" />
<glyph unicode="#" horiz-adv-x="1150" d="M144 575l50 200h175l25 100h-175l50 200h175l57 225h275l-57 -225h150l57 225h275l-57 -225h175l-50 -200h-176l-25 -100h176l-50 -200h-175l-56 -225h-275l56 225h-150l-56 -225h-275l56 225h-175zM644 775h150l25 100h-150z" />
<glyph unicode="$" d="M93 347q0 25 7 53l44 175h275l-25 -100q-4 -16 -4 -28q0 -47 56 -47h25q79 0 104 100l13 50q2 7 2 13q0 37 -65 37h-50q-282 0 -282 150q0 23 7 50l57 225q44 173 273 196l45 179h275l-45 -179q184 -19 184 -143q0 -24 -7 -53l-44 -175h-274l18 75q6 26 6 44q0 56 -54 56 h-25q-75 0 -102 -100l-13 -50q-5 -21 -5 -36q0 -39 36 -39h86q271 0 271 -149q0 -24 -7 -51l-50 -200q-43 -173 -274 -196l-51 -204h-275l51 204q-183 19 -183 143z" />
<glyph unicode="%" d="M200 0l372 650h-109q-256 0 -256 150q0 23 6 50l68 275q50 200 348 200h99q140 0 205 -42l67 117h275l-371 -650h106q261 0 261 -148q0 -24 -7 -52l-70 -275q-50 -200 -349 -200h-101q-138 0 -201 43l-68 -118h-275zM508 910q0 -60 55 -60q75 0 100 100l19 75q6 25 6 44 q0 56 -56 56q-76 0 -101 -100l-18 -75q-5 -23 -5 -40zM789 335q0 -60 55 -60q75 0 100 100l20 75q6 25 6 44q0 56 -56 56q-76 0 -101 -100l-19 -75q-5 -23 -5 -40z" />
<glyph unicode="&#x26;" d="M95 347q0 24 7 53l58 225q19 75 71 100q-27 18 -27 62q0 17 4 38l48 200q45 171 274 196l45 179h275l-44 -178q182 -18 182 -143q0 -25 -7 -54l-18 -75h-271q3 14 3 25q0 50 -56 50h-25q-81 0 -106 -100h2q-6 -22 -6 -39q0 -61 69 -61h87l-50 -200h-99q-76 0 -102 -100 l-12 -50q-4 -15 -4 -28q0 -47 59 -47h25q75 0 94 75h276l-20 -75q-43 -174 -276 -197l-51 -203h-275l51 204q-181 19 -181 143z" />
<glyph unicode="'" horiz-adv-x="375" d="M300 1200l50 200h275l-50 -200q-44 -175 -194 -175l44 175h-125z" />
<glyph unicode="(" horiz-adv-x="550" d="M-8 -57q0 26 8 57l347 1400q53 200 328 200h175l-50 -200h-104q-71 0 -96 -100l-300 -1200q-6 -25 -6 -44q0 -56 56 -56h100l-50 -200h-175q-233 0 -233 143z" />
<glyph unicode=")" horiz-adv-x="550" d="M-53 -200l50 200h100q75 0 100 100l300 1200q7 26 7 45q0 55 -53 55h-104l50 200h175q235 0 235 -146q0 -25 -7 -54l-353 -1400q-50 -200 -325 -200h-175z" />
<glyph unicode="*" horiz-adv-x="950" d="M222 701l208 213l-185 65l109 190l230 -81l71 289h200l-71 -289l270 81l15 -190l-217 -65l100 -213l-191 -118l-133 280l-273 -280z" />
<glyph unicode="+" horiz-adv-x="725" d="M144 575l50 200h175l57 225h275l-57 -225h175l-50 -200h-175l-56 -225h-275l56 225h-175z" />
<glyph unicode="," horiz-adv-x="375" d="M0 0l50 200h275l-50 -200q-44 -175 -194 -175l44 175h-125z" />
<glyph unicode="-" horiz-adv-x="750" d="M144 575l50 200h650l-50 -200h-650z" />
<glyph unicode="." horiz-adv-x="375" d="M0 0l50 200h275l-50 -200h-275z" />
<glyph unicode="/" d="M0 0l800 1400h275l-800 -1400h-275z" />
<glyph unicode="0" d="M40 151q0 22 6 49l254 1000q50 200 348 200h123q261 0 261 -148q0 -24 -7 -52l-250 -1000q-50 -200 -349 -200h-125q-261 0 -261 151zM343 255q0 -55 53 -55h25q79 0 104 100l200 800q6 25 6 44q0 56 -55 56h-25q-76 0 -101 -100l-200 -800q-7 -26 -7 -45z" />
<glyph unicode="1" horiz-adv-x="475" d="M100 0l300 1200h-100l50 200h375l-350 -1400h-275z" />
<glyph unicode="2" d="M-82 1400l4 50l1 -50h-5zM1 0l143 575q50 200 341 200h84q75 0 107 125l50 200q6 24 6 42q0 58 -62 58h-25q-69 0 -94 -100l-20 -75h-275l45 175q50 200 350 200h125q259 0 259 -149q0 -23 -7 -51l-109 -425q-54 -200 -353 -200h-69q-78 0 -109 -125l-62 -250h450 l-50 -200h-725z" />
<glyph unicode="3" d="M43 147q0 24 7 53l63 250h275l-44 -175q-4 -15 -4 -27q0 -48 60 -48h25q75 0 94 75l64 250q6 24 6 42q0 58 -58 58h-99l50 200h87q88 0 113 100l43 175q6 24 6 42q0 58 -62 58h-25q-69 0 -94 -100l-36 -150h-275l61 250q50 200 347 200h124q263 0 263 -149q0 -24 -7 -51 l-93 -375q-22 -75 -73 -100q27 -17 27 -57q0 -19 -6 -43l-107 -425q-50 -200 -349 -200h-126q-257 0 -257 147z" />
<glyph unicode="4" horiz-adv-x="950" d="M94 375l50 200l456 825h450l-206 -825h150l-50 -200h-150l-94 -375h-275l94 375h-425zM394 575h175l137 550z" />
<glyph unicode="5" d="M43 147q0 24 7 53l44 175h275l-19 -75q-2 -15 -2 -28q0 -72 48 -72h29q75 0 100 100l69 275q6 24 6 42q0 58 -61 58h-373l259 725h650l-49 -200h-451l-106 -325h175q257 0 257 -147q0 -24 -7 -53l-119 -475q-50 -200 -350 -200h-125q-257 0 -257 147z" />
<glyph unicode="6" d="M40 151q0 22 6 49l254 1000q50 200 350 200h125q257 0 257 -147q0 -24 -7 -53l-62 -250h-275l37 150q6 25 6 44q0 56 -55 56h-25q-76 0 -101 -100l-56 -225q-6 -25 -6 -44q0 -56 56 -56h67q265 0 265 -148q0 -24 -7 -52l-94 -375q-50 -200 -349 -200h-125 q-261 0 -261 151zM343 255q0 -55 53 -55h25q79 0 104 100l44 175q6 24 6 43q0 57 -59 57h-27q-70 0 -95 -100l-44 -175q-7 -26 -7 -45z" />
<glyph unicode="7" horiz-adv-x="750" d="M200 0l475 1200h-375l50 200h650l-50 -200l-475 -1200h-275z" />
<glyph unicode="8" d="M44 150q0 23 7 50l112 450q43 75 73 75q-25 25 -30 100l95 375q50 200 347 200h124q263 0 263 -149q0 -24 -7 -51l-94 -375q-22 -75 -73 -100q27 -17 27 -57q0 -19 -6 -43l-106 -425q-50 -200 -349 -200h-101q-282 0 -282 150zM346 263q0 -63 55 -63h25q74 0 93 75 l63 250q2 16 2 30q0 70 -52 70h-25q-69 0 -100 -100l-61 -251v-11zM501 881q0 -56 56 -56h19q81 0 106 100l44 175q6 25 6 44q0 56 -55 56h-25q-75 0 -101 -100l-44 -175q-6 -25 -6 -44z" />
<glyph unicode="9" d="M39 147q0 24 7 53l63 250h275l-38 -150q-6 -25 -6 -44q0 -56 55 -56h25q76 0 101 100l57 225q6 25 6 44q0 56 -56 56h-67q-265 0 -265 148q0 24 7 52l93 375q50 200 349 200h125q261 0 261 -151q0 -22 -6 -49l-254 -1000q-50 -200 -350 -200h-125q-257 0 -257 147z M497 882q0 -57 59 -57h27q70 0 95 100l43 175q7 26 7 45q0 55 -53 55h-25q-79 0 -104 -100l-43 -175q-6 -24 -6 -43z" />
<glyph unicode=":" horiz-adv-x="375" d="M0 0l50 200h275l-50 -200h-275zM156 625l50 200h275l-50 -200h-275z" />
<glyph unicode=";" horiz-adv-x="375" d="M0 0l50 200h275l-50 -200q-44 -175 -194 -175l44 175h-125zM156 625l50 200h275l-50 -200h-275z" />
<glyph unicode="&#x3c;" horiz-adv-x="750" d="M144 575l50 200l700 200l-50 -200l-356 -100l306 -100l-50 -200z" />
<glyph unicode="=" horiz-adv-x="750" d="M93 375l51 200h650l-50 -200h-651zM194 775l50 200h650l-50 -200h-650z" />
<glyph unicode="&#x3e;" horiz-adv-x="750" d="M94 375l50 200l356 100l-306 100l50 200l600 -200l-50 -200z" />
<glyph unicode="?" d="M75 0l50 200h275l-51 -200h-274zM169 375l50 200q50 200 350 200q75 0 106 126l50 199q6 23 6 41q0 59 -63 59h-25q-68 0 -93 -100l-37 -150h-275l62 250q50 200 350 200h100q282 0 282 -150q0 -23 -7 -50l-106 -425q-50 -200 -350 -200q-72 0 -101 -116l-2 -9l-22 -75 h-275z" />
<glyph unicode="@" horiz-adv-x="1125" d="M43 147q0 25 7 53l206 825q50 200 350 200h450q233 0 233 -143q0 -26 -8 -57l-180 -725h-275l18 75q-43 -75 -143 -75q-233 0 -233 143q0 26 8 57l66 250q44 175 261 175h178q6 25 6 44q0 56 -55 56h-325q-75 0 -101 -100l-156 -625q-6 -25 -6 -44q0 -56 56 -56h671 l-46 -200h-724q-258 0 -258 147zM767 546q0 -46 34 -46h24q50 0 76 100l38 150h-50q-75 0 -100 -100l-14 -50q-8 -32 -8 -54z" />
<glyph unicode="A" d="M0 0l575 1400h275l-125 -1400h-275l9 100h-143l-41 -100h-275zM400 300h75l22 244z" />
<glyph unicode="B" d="M0 0l350 1400h425q257 0 257 -147q0 -24 -7 -53l-94 -375q-20 -75 -70 -99q26 -17 26 -57q0 -19 -6 -44l-106 -425q-50 -200 -349 -200h-426zM325 200h96q79 0 104 100l56 225q7 27 7 46q0 54 -51 54h-106zM481 825h94q81 0 100 75l50 200q6 25 6 44q0 56 -55 56h-100z " />
<glyph unicode="C" d="M40 151q0 22 6 49l254 1000q50 200 348 200h123q261 0 261 -148q0 -24 -7 -52l-62 -250h-275l37 150q6 25 6 44q0 56 -55 56h-25q-76 0 -101 -100l-200 -800q-7 -26 -7 -45q0 -55 53 -55h25q79 0 104 100l38 150h275l-63 -250q-50 -200 -349 -200h-125q-261 0 -261 151z " />
<glyph unicode="D" d="M0 0l350 1400h425q257 0 257 -147q0 -24 -7 -53l-250 -1000q-50 -200 -350 -200h-425zM325 200h96q79 0 104 100l200 800q6 25 6 44q0 56 -55 56h-100z" />
<glyph unicode="E" horiz-adv-x="750" d="M0 0l350 1400h650l-50 -200h-375l-106 -425h375l-50 -200h-375l-94 -375h375l-50 -200h-650z" />
<glyph unicode="F" horiz-adv-x="750" d="M0 0l350 1400h650l-50 -200h-375l-106 -425h375l-50 -200h-375l-144 -575h-275z" />
<glyph unicode="G" d="M43 147q0 25 7 53l250 1000q50 200 350 200h125q257 0 257 -147q0 -24 -7 -53l-62 -250h-275l37 150q6 25 6 44q0 56 -55 56h-25q-76 0 -101 -100l-200 -800q-7 -26 -7 -45q0 -55 53 -55h25q78 0 104 100l69 275h-101l51 200h375l-194 -775h-424q-258 0 -258 147z" />
<glyph unicode="H" d="M0 0l347 1400h275l-154 -625h175l154 625h275l-347 -1400h-275l143 575h-175l-143 -575h-275z" />
<glyph unicode="I" horiz-adv-x="375" d="M0 0l350 1400h275l-350 -1400h-275z" />
<glyph unicode="J" d="M43 147q0 25 7 53l44 175h275l-19 -75q-6 -25 -6 -44q0 -56 56 -56h21q78 0 104 100l275 1100h275l-300 -1200q-50 -200 -350 -200h-124q-258 0 -258 147z" />
<glyph unicode="K" d="M0 0l350 1400h275l-137 -550l309 550h278l-401 -700l51 -700h-275l-37 550l-138 -550h-275z" />
<glyph unicode="L" horiz-adv-x="750" d="M0 0l350 1400h275l-300 -1200h375l-50 -200h-650z" />
<glyph unicode="M" horiz-adv-x="1125" d="M0 0l350 1400h425l-50 -544l225 544h425l-350 -1400h-275l156 625l-256 -625h-275l56 625l-156 -625h-275z" />
<glyph unicode="N" d="M0 0l347 1400h278l38 -550l137 550h275l-350 -1400h-275l-37 550l-138 -550h-275z" />
<glyph unicode="O" d="M40 151q0 23 6 49l254 1000q50 200 348 200h123q54 0 98 -6l-656 -744h300l-346 -636q-127 32 -127 137zM48 -210l116 214q22 -6 48 -9zM214 5l636 795h-300l365 584q117 -33 117 -131q0 -25 -7 -53l-250 -1000q-50 -200 -349 -200h-125q-48 0 -87 5zM871 1404l182 206 l-135 -216q-22 6 -47 10z" />
<glyph unicode="P" d="M0 0l350 1400h421q254 0 254 -192v-8l-106 -425q-55 -200 -325 -200h-175l-144 -575h-275zM469 775h100q75 0 100 100l56 225q6 25 6 44q0 56 -55 56h-101z" />
<glyph unicode="Q" d="M44 151q0 22 6 49l254 1000q50 200 348 200h123q261 0 261 -148q0 -24 -7 -52l-250 -1000q-24 -96 -105 -146l1 -254h-275l-1 200h-94q-261 0 -261 151zM343 255q0 -55 53 -55h1l-2 281l-45 -181q-7 -26 -7 -45zM444 675h175l106 425q6 25 6 44q0 56 -55 56h-25 q-76 0 -101 -100z" />
<glyph unicode="R" d="M0 0l350 1400h421q261 0 261 -148q0 -24 -7 -52l-106 -425q-44 -175 -245 -192l51 -583h-275l-44 525l-131 -525h-275zM469 775h100q75 0 100 100l56 225q6 25 6 44q0 56 -55 56h-100z" />
<glyph unicode="S" d="M43 147q0 25 7 53l63 250h275l-38 -150q-7 -26 -7 -45q0 -55 53 -55h25q79 0 104 100l50 200q6 24 6 43q0 57 -59 57h-72q-257 0 -257 147q0 24 7 53l100 400q50 200 350 200h125q250 0 250 -192v-8l-61 -250h-277l38 150q6 25 6 44q0 56 -55 56h-25q-76 0 -101 -100 l-50 -200q-6 -25 -6 -44q0 -56 56 -56h75q257 0 257 -147q0 -24 -7 -53l-100 -400q-50 -200 -349 -200h-125q-258 0 -258 147z" />
<glyph unicode="T" horiz-adv-x="775" d="M200 0l300 1200h-200l50 200h675l-50 -200h-200l-300 -1200h-275z" />
<glyph unicode="U" d="M43 147q0 25 7 53l300 1200h275l-275 -1100q-6 -25 -6 -44q0 -56 56 -56h21q78 0 104 100l272 1100h278l-300 -1200q-50 -200 -349 -200h-125q-258 0 -258 147z" />
<glyph unicode="V" d="M225 0l125 1400h275l-50 -544l225 544h275l-575 -1400h-275z" />
<glyph unicode="W" horiz-adv-x="1275" d="M225 0l125 1400h275l-50 -544l225 544h275l-50 -544l225 544h275l-575 -1400h-275l47 544l-222 -544h-275z" />
<glyph unicode="X" d="M0 0l400 700l-50 700h275l17 -272l158 272h275l-400 -700l50 -700h-275l-20 272l-155 -272h-275z" />
<glyph unicode="Y" d="M225 0l175 700l-50 700h275l17 -272l158 272h275l-400 -700l-175 -700h-275z" />
<glyph unicode="Z" horiz-adv-x="750" d="M0 0l50 200l625 1000h-375l50 200h650l-50 -200l-625 -1000h375l-50 -200h-650z" />
<glyph unicode="[" horiz-adv-x="750" d="M-50 -200l450 1800h650l-50 -200h-375l-350 -1400h375l-50 -200h-650z" />
<glyph unicode="\" d="M350 1400h275l100 -1400h-275z" />
<glyph unicode="]" horiz-adv-x="750" d="M-50 -200l50 200h375l350 1400h-375l50 200h650l-450 -1800h-650z" />
<glyph unicode="^" horiz-adv-x="750" d="M375 1500l263 350h300l87 -350h-275l-26 100l-74 -100h-275z" />
<glyph unicode="_" horiz-adv-x="750" d="M-50 -200l50 200h650l-50 -200h-650z" />
<glyph unicode="`" horiz-adv-x="750" d="M413 1650l50 200h400q196 0 196 -169q0 -47 -15 -106l-19 -75h-250z" />
<glyph unicode="a" d="M43 147q0 25 7 53l50 200q44 175 319 175h175l38 150q6 25 6 44q0 56 -56 56q-76 0 -101 -100l-19 -75h-275l44 175q50 200 346 200h101q262 0 262 -148q0 -24 -7 -52l-208 -825h-250l19 75q-43 -75 -193 -75q-258 0 -258 147zM344 256q0 -56 56 -56h25q71 0 100 100 l25 100h-100q-75 0 -100 -100q-6 -25 -6 -44z" />
<glyph unicode="b" d="M0 0l350 1400h275l-111 -450q42 75 167 75q257 0 257 -147q0 -24 -7 -53l-156 -625q-50 -200 -349 -200q-125 0 -132 75l-18 -75h-276zM340 248q0 -48 60 -48h21q79 0 98 75l112 450q6 26 6 44q0 56 -54 56h-25q-77 0 -102 -100l-112 -450q-4 -15 -4 -27z" />
<glyph unicode="c" d="M43 147q0 24 7 53l156 625q50 200 348 200h123q261 0 261 -148q0 -24 -7 -52l-49 -200h-275l24 100q6 25 6 44q0 56 -55 56h-25q-76 0 -101 -100l-106 -425q-6 -25 -6 -44q0 -56 56 -56h25q74 0 100 100l25 100h275l-50 -200q-50 -200 -349 -200h-126q-257 0 -257 147z " />
<glyph unicode="d" d="M43 147q0 24 7 53l156 625q50 200 350 200q125 0 132 -75l112 450h275l-350 -1400h-276l21 75q-46 -75 -171 -75q-256 0 -256 147zM340 249q0 -49 64 -49h21q75 0 95 75l111 450q6 25 6 43q0 57 -58 57h-25q-73 0 -98 -100l-112 -450q-4 -15 -4 -26z" />
<glyph unicode="e" d="M43 147q0 25 7 53l156 625q50 200 348 200h123q261 0 261 -148q0 -24 -7 -52l-92 -375h-450l-39 -150q-7 -26 -7 -45q0 -55 53 -55h25q78 0 104 100l19 75h275l-44 -175q-50 -200 -349 -200h-125q-258 0 -258 147zM432 625h174l25 100q6 25 6 44q0 56 -55 56h-25 q-76 0 -101 -100z" />
<glyph unicode="f" horiz-adv-x="600" d="M100 0l144 575h-100l50 200h100l106 425q50 200 325 200h125l-50 -200h-50q-75 0 -106 -125l-75 -300h125l-50 -200h-125l-144 -575h-275z" />
<glyph unicode="g" d="M42 143q0 26 8 57l156 625q50 200 325 200q147 0 158 -75l17 75h275l-300 -1200q-50 -200 -325 -200h-250l50 200h178q72 0 97 100l38 150q-43 -75 -194 -75q-233 0 -233 143zM343 255q0 -55 53 -55h25q79 0 104 100l113 450q3 15 3 26q0 49 -60 49h-25q-74 -1 -92 -75 l-114 -450q-7 -26 -7 -45z" />
<glyph unicode="h" d="M0 0l350 1400h275l-111 -450q39 75 167 75q257 0 257 -147q0 -24 -7 -53l-206 -825h-275l181 725q6 26 6 44q0 56 -54 56h-25q-77 0 -102 -100l-181 -725h-275z" />
<glyph unicode="i" horiz-adv-x="375" d="M0 0l256 1025h275l-256 -1025h-275zM300 1200l50 200h275l-49 -200h-276z" />
<glyph unicode="j" horiz-adv-x="375" d="M-344 -375l50 200h178q72 0 97 100l275 1100h275l-297 -1200q-53 -200 -328 -200h-250zM300 1200l50 200h275l-50 -200h-275z" />
<glyph unicode="k" d="M0 0l350 1400h275l-144 -575l225 200h275l-393 -375l137 -650h-275l-69 425l-106 -425h-275z" />
<glyph unicode="l" horiz-adv-x="375" d="M0 0l350 1400h275l-350 -1400h-275z" />
<glyph unicode="m" horiz-adv-x="1275" d="M0 0l256 1025h275l-17 -75q42 75 192 75q225 0 227 -105q48 105 223 105q233 0 233 -143q0 -26 -8 -57l-206 -825h-275l181 725q1 13 1 23q0 77 -49 77h-25q-77 0 -102 -100l-181 -725h-275l181 725q6 26 6 44q0 56 -54 56h-25q-77 0 -102 -100l-181 -725h-275z" />
<glyph unicode="n" d="M0 0l256 1025h275l-17 -75q42 75 217 75q210 0 210 -141q0 -27 -8 -59l-208 -825h-275l181 725q6 26 6 44q0 56 -54 56h-25q-77 0 -102 -100l-181 -725h-275z" />
<glyph unicode="o" d="M40 151q0 23 6 49l160 625q50 200 348 200h123q31 0 59 -2l-580 -598h300l-269 -415q-147 28 -147 141zM48 -210l136 210q27 -6 57 -8zM244 2l550 573h-300l297 441q147 -28 147 -138q0 -24 -7 -53l-156 -625q-50 -200 -349 -200h-125q-30 0 -57 2zM738 1033l196 202 l-140 -209q-26 5 -56 7z" />
<glyph unicode="p" d="M-94 -375l350 1400h275l-18 -75q43 75 193 75q233 0 233 -143q0 -26 -8 -57l-156 -625q-50 -200 -325 -200q-150 0 -155 75l-114 -450h-275zM340 247q0 -47 56 -47h25q80 0 99 75l111 450q6 26 6 44q0 56 -54 56h-25q-77 0 -102 -100l-112 -450q-4 -16 -4 -28z" />
<glyph unicode="q" d="M43 144q0 26 7 56l156 625q50 200 325 200q150 0 157 -75l18 75h275l-350 -1400h-275l113 450q-43 -75 -193 -75q-233 0 -233 144zM340 249q0 -49 65 -49h25q70 0 88 73l114 455q6 23 6 41q0 56 -59 56h-25q-73 0 -98 -100l-112 -450q-4 -14 -4 -26z" />
<glyph unicode="r" d="M0 0l256 1025h275l-17 -75q42 75 192 75q233 0 233 -143q0 -26 -8 -57l-25 -100h-275q6 26 6 44q0 56 -54 56h-25q-77 0 -102 -100l-181 -725h-275z" />
<glyph unicode="s" d="M43 147q0 25 7 53l44 175h275l-25 -100q-4 -16 -4 -28q0 -47 56 -47h25q79 0 104 100l13 50q2 7 2 13q0 37 -65 37h-50q-282 0 -282 150q0 23 7 50l57 225q50 200 349 200h123q260 0 260 -147q0 -25 -7 -53l-44 -175h-274l18 75q6 26 6 44q0 56 -54 56h-25 q-75 0 -102 -100l-13 -50q-5 -21 -5 -36q0 -39 36 -39h86q271 0 271 -149q0 -24 -7 -51l-50 -200q-50 -200 -349 -200h-125q-258 0 -258 147z" />
<glyph unicode="t" horiz-adv-x="625" d="M142 143q0 26 8 57l181 725h-100l25 100h100l69 275l300 100l-94 -375h150l-25 -100h-150l-156 -625q-6 -25 -6 -44q0 -56 56 -56h75l-50 -200h-150q-233 0 -233 143z" />
<glyph unicode="u" d="M42 143q0 26 8 57l206 825h275l-181 -725q-7 -26 -7 -45q0 -55 53 -55h25q78 0 104 100l181 725h275l-256 -1025h-275l19 75q-44 -75 -194 -75q-233 0 -233 143z" />
<glyph unicode="v" d="M225 0l31 1025h275l-12 -399l187 399h275l-481 -1025h-275z" />
<glyph unicode="w" horiz-adv-x="1275" d="M225 0l29 1025h275l-10 -399l185 399h275l-10 -399l185 399h275l-479 -1025h-275l11 399l-186 -399h-275z" />
<glyph unicode="x" d="M0 0l362 526l-108 499h275l39 -199l136 199h275l-352 -512l98 -513h-250l-47 222l-153 -222h-275z" />
<glyph unicode="y" d="M42 143q0 26 8 57l206 825h275l-181 -725q-2 -15 -2 -28q0 -72 48 -72h25q78 0 104 100l181 725h275l-297 -1200q-53 -200 -328 -200h-250l50 200h178q72 0 97 100l38 150q-43 -75 -194 -75q-233 0 -233 143z" />
<glyph unicode="z" horiz-adv-x="750" d="M0 0l50 200l531 625h-377l50 200h652l-50 -200l-535 -625h379l-50 -200h-650z" />
<glyph unicode="{" horiz-adv-x="725" d="M156 625l50 200h100q75 0 100 100l119 475q50 200 325 200h175l-50 -200h-100q-75 0 -101 -100l-118 -475q-18 -75 -67 -100q24 -16 24 -54q0 -20 -7 -46l-131 -525q-6 -25 -6 -43q0 -57 57 -57h99l-50 -200h-175q-233 0 -233 143q0 26 8 57l131 525q6 26 6 45 q0 55 -53 55h-103z" />
<glyph unicode="|" horiz-adv-x="375" d="M-50 -200l450 1800h275l-450 -1800h-275z" />
<glyph unicode="}" horiz-adv-x="725" d="M-50 -200l50 200h99q76 0 101 100l131 525q19 75 67 100q-23 17 -23 55q0 20 6 45l120 475q6 24 6 43q0 57 -57 57h-100l50 200h175q233 0 233 -143q0 -26 -8 -57l-119 -475q-6 -25 -6 -44q0 -56 56 -56h100l-50 -200h-103q-72 0 -97 -100l-131 -525q-50 -200 -325 -200 h-175z" />
<glyph unicode="~" d="M375 1500l88 350h273l-18 -75q43 75 218 75q210 0 210 -141q0 -27 -8 -59l-38 -150h-275l11 50q6 26 6 44q0 56 -54 56h-25q-75 0 -100 -100l-13 -50h-275z" />
<glyph unicode="&#xa1;" horiz-adv-x="375" d="M0 0l256 1025h275l-256 -1025h-275zM300 1200l50 200h275l-50 -200h-275z" />
<glyph unicode="&#xa2;" d="M93 347q0 25 7 53l156 625q44 174 275 197l44 178h275l-45 -179q183 -20 183 -144q0 -24 -7 -52l-49 -200h-276l25 100q6 25 6 44q0 56 -55 56h-25q-76 0 -101 -100l-106 -425q-6 -25 -6 -44q0 -56 56 -56h25q74 0 100 100l25 100h275l-50 -200q-43 -173 -274 -196 l-51 -204h-275l51 204q-183 19 -183 143z" />
<glyph unicode="&#xa3;" horiz-adv-x="900" d="M-1 0l50 200h100l94 375h-100l50 200h101l107 428q49 197 347 197h101q250 0 250 -192v-8l-61 -250h-277l38 150q6 25 6 44q0 56 -55 56h-1q-76 0 -101 -100l-80 -325h425l-50 -200h-425l-94 -375h425l-50 -200h-800z" />
<glyph unicode="&#xa4;" d="M52 200l134 194q-53 41 -53 107q0 23 7 49l81 325q27 108 126 158l-41 192h275l29 -150h43l103 150h275l-133 -193q55 -37 55 -104q0 -25 -7 -53l-81 -325q-27 -107 -125 -157l37 -193h-250l-32 150h-64l-104 -150h-275zM433 605q0 -55 53 -55h25q79 0 104 100l31 125 q6 25 6 44q0 56 -55 56h-25q-76 0 -101 -100l-31 -125q-7 -26 -7 -45z" />
<glyph unicode="&#xa5;" d="M62 150l51 200h200l50 200h-200l50 200h184l-47 650h275l17 -272l158 272h275l-371 -650h184l-50 -200h-200l-50 -200h200l-50 -200h-200l-38 -150h-275l38 150h-201z" />
<glyph unicode="&#xa6;" horiz-adv-x="375" d="M-50 -200l194 775h275l-194 -775h-275zM194 775l206 825h275l-206 -825h-275z" />
<glyph unicode="&#xa7;" d="M-8 -53q0 25 7 53l63 250h275l-38 -150q-7 -26 -7 -45q0 -55 53 -55h25q79 0 104 100l64 250h-145q-261 0 -261 151q0 22 6 49l56 213q1 18 6 37l150 600q50 200 350 200h125q250 0 250 -192v-8l-61 -250h-277l38 150q6 25 6 44q0 56 -55 56h-25q-76 0 -101 -100 l-62 -250h150q261 0 261 -148q0 -24 -7 -52l-75 -300q-6 -24 -15 -44l-128 -506q-50 -200 -349 -200h-125q-258 0 -258 147zM435 605q0 -55 53 -55h25q79 0 104 100l25 100q6 25 6 44q0 56 -55 56h-25q-76 0 -101 -100l-25 -100q-7 -26 -7 -45z" />
<glyph unicode="&#xa8;" d="M400 1600l50 200h275l-50 -200h-275zM850 1600l50 200h275l-50 -200h-275z" />
<glyph unicode="&#xa9;" horiz-adv-x="1325" d="M87 322q0 25 7 53l206 825q50 200 350 200h650q235 0 235 -146q0 -25 -7 -54l-209 -825q-50 -200 -325 -200h-649q-258 0 -258 147zM388 431q0 -56 56 -56h525q75 0 100 100l156 625q7 26 7 45q0 55 -53 55h-528q-75 0 -101 -100l-156 -625q-6 -25 -6 -44zM512 618 q0 26 8 57l65 250q45 175 262 175h302l-44 -175h-174q-74 -1 -99 -100l-13 -50q-8 -32 -8 -54q0 -46 34 -46h199l-50 -200h-249q-233 0 -233 143z" />
<glyph unicode="&#xaa;" horiz-adv-x="648" />
<glyph unicode="&#xab;" horiz-adv-x="944" d="M165 479l336 303h14v-37l-199 -266l210 -266l1 -37h-14zM478 479l336 303h14v-37l-199 -266l210 -266l1 -37h-14z" />
<glyph unicode="&#xac;" horiz-adv-x="1014" d="M72 767h840l10 -491l-1 -1h-98l-8 392h-741z" />
<glyph unicode="&#xad;" horiz-adv-x="750" d="M144 575l50 200h650l-50 -200h-650z" />
<glyph unicode="&#xae;" horiz-adv-x="1325" d="M87 322q0 25 7 53l206 825q50 200 350 200h650q235 0 235 -146q0 -25 -7 -54l-209 -825q-50 -200 -325 -200h-649q-258 0 -258 147zM388 431q0 -56 56 -56h525q75 0 100 100l156 625q7 26 7 45q0 55 -53 55h-528q-75 0 -101 -100l-156 -625q-6 -25 -6 -44zM469 475 l156 625h275l-17 -74q42 74 192 75l75 -1l-44 -175h-175q-74 -1 -99 -100l-87 -350h-276z" />
<glyph unicode="&#xaf;" horiz-adv-x="750" d="M347 1400l46 200h750l-46 -200h-750z" />
<glyph unicode="&#xb0;" horiz-adv-x="800" d="M225 875q0 23 6 50l69 275q50 200 348 200h98q261 0 261 -148q0 -24 -7 -52l-70 -275q-50 -200 -349 -200h-100q-256 0 -256 150zM526 984q0 -59 54 -59q75 0 101 100l19 75q6 25 6 44q0 56 -56 56q-75 -1 -100 -100l-19 -75q-5 -23 -5 -41z" />
<glyph unicode="&#xb1;" horiz-adv-x="1014" />
<glyph unicode="&#xb2;" horiz-adv-x="1014" />
<glyph unicode="&#xb3;" horiz-adv-x="1014" />
<glyph unicode="&#xb4;" horiz-adv-x="750" d="M375 1500l19 75q69 275 319 275h400l-50 -200l-438 -150h-250z" />
<glyph unicode="&#xb5;" d="M-94 -375l350 1400h275l-181 -725q-7 -26 -7 -45q0 -55 53 -55h25q78 0 104 100l181 725h275l-256 -1025h-275l19 75q-44 -75 -194 -75l-94 -375h-275z" />
<glyph unicode="&#xb6;" horiz-adv-x="1125" d="M185 726q0 23 6 49l106 425q95 200 354 200h724l-350 -1400h-275l300 1200h-175l-300 -1200h-275l144 575q-259 0 -259 151z" />
<glyph unicode="&#xb7;" horiz-adv-x="375" d="M156 625l50 200h275l-50 -200h-275z" />
<glyph unicode="&#xb8;" horiz-adv-x="625" d="M-97 -375l50 200h178q72 0 97 100l69 275h275l-91 -375q-53 -200 -328 -200h-250z" />
<glyph unicode="&#xb9;" horiz-adv-x="1014" />
<glyph unicode="&#xba;" horiz-adv-x="718" />
<glyph unicode="&#xbb;" horiz-adv-x="944" d="M86 745v37h14l348 -303l-336 -303h-14l-1 37l200 266zM399 745v37h14l348 -303l-336 -303h-14l-1 37l200 266z" />
<glyph unicode="&#xbc;" horiz-adv-x="1708" />
<glyph unicode="&#xbd;" horiz-adv-x="1964" />
<glyph unicode="&#xbe;" horiz-adv-x="1708" />
<glyph unicode="&#xbf;" d="M43 150q0 23 7 50l106 425q50 200 350 200q75 0 108 125l17 75h275l-50 -200q-50 -200 -350 -200q-75 0 -106 -125l-50 -200q-6 -23 -6 -41q0 -59 63 -59h25q68 0 93 100l38 150h275l-63 -250q-50 -200 -350 -200h-100q-282 0 -282 150zM675 1200l50 200h275l-50 -200 h-275z" />
<glyph unicode="&#xc0;" d="M0 0l575 1400h275l-125 -1400h-275l9 100h-143l-41 -100h-275zM400 300h75l22 244zM438 1650l50 200h400q196 0 196 -169q0 -47 -15 -106l-19 -75h-250z" />
<glyph unicode="&#xc1;" d="M0 0l575 1400h275l-125 -1400h-275l9 100h-143l-41 -100h-275zM400 300h75l22 244zM400 1500l19 75q69 275 319 275h400l-50 -200l-438 -150h-250z" />
<glyph unicode="&#xc2;" d="M0 0l575 1400h275l-125 -1400h-275l9 100h-143l-41 -100h-275zM400 300h75l22 244zM400 1500l263 350h300l87 -350h-275l-26 100l-74 -100h-275z" />
<glyph unicode="&#xc3;" d="M0 0l575 1400h275l-125 -1400h-275l9 100h-143l-41 -100h-275zM375 1500l88 350h273l-18 -75q43 75 218 75q210 0 210 -141q0 -27 -8 -59l-38 -150h-275l11 50q6 26 6 44q0 56 -54 56h-25q-75 0 -100 -100l-13 -50h-275zM400 300h75l22 244z" />
<glyph unicode="&#xc4;" d="M0 0l575 1400h275l-125 -1400h-275l9 100h-143l-41 -100h-275zM400 300h75l22 244zM400 1600l50 200h275l-50 -200h-275zM850 1600l50 200h275l-50 -200h-275z" />
<glyph unicode="&#xc5;" d="M0 0l575 1400h275l-125 -1400h-275l9 100h-143l-41 -100h-275zM400 300h75l22 244zM625 1600l50 200h275l-50 -200h-275z" />
<glyph unicode="&#xc6;" horiz-adv-x="1200" d="M0 0l575 1400h875l-50 -200h-375l-106 -425h375l-50 -200h-375l-94 -375h375l-50 -200h-650l9 100h-143l-41 -100h-275zM400 300h75l22 244z" />
<glyph unicode="&#xc7;" d="M-97 -375l50 200h178q72 0 97 100l20 77q-208 15 -208 149q0 23 6 49l254 1000q50 200 348 200h123q261 0 261 -148q0 -24 -7 -52l-62 -250h-275l37 150q6 25 6 44q0 56 -55 56h-25q-76 0 -101 -100l-200 -800q-7 -26 -7 -45q0 -55 53 -55h25q79 0 104 100l38 150h275 l-63 -250q-41 -164 -249 -194l-45 -181q-53 -200 -328 -200h-250z" />
<glyph unicode="&#xc8;" horiz-adv-x="750" d="M0 0l350 1400h650l-50 -200h-375l-106 -425h375l-50 -200h-375l-94 -375h375l-50 -200h-650zM438 1650l50 200h400q196 0 196 -169q0 -47 -15 -106l-19 -75h-250z" />
<glyph unicode="&#xc9;" horiz-adv-x="750" d="M0 0l350 1400h650l-50 -200h-375l-106 -425h375l-50 -200h-375l-94 -375h375l-50 -200h-650zM400 1500l19 75q69 275 319 275h400l-50 -200l-438 -150h-250z" />
<glyph unicode="&#xca;" horiz-adv-x="750" d="M0 0l350 1400h650l-50 -200h-375l-106 -425h375l-50 -200h-375l-94 -375h375l-50 -200h-650zM400 1500l263 350h300l87 -350h-275l-26 100l-74 -100h-275z" />
<glyph unicode="&#xcb;" horiz-adv-x="750" d="M0 0l350 1400h650l-50 -200h-375l-106 -425h375l-50 -200h-375l-94 -375h375l-50 -200h-650zM375 1600l50 200h275l-50 -200h-275zM825 1600l50 200h275l-50 -200h-275z" />
<glyph unicode="&#xcc;" horiz-adv-x="375" d="M0 0l350 1400h275l-350 -1400h-275zM213 1650l50 200h400q196 0 196 -169q0 -47 -15 -106l-19 -75h-250z" />
<glyph unicode="&#xcd;" horiz-adv-x="375" d="M0 0l350 1400h275l-350 -1400h-275zM175 1500l19 75q69 275 319 275h400l-50 -200l-438 -150h-250z" />
<glyph unicode="&#xce;" horiz-adv-x="375" d="M0 0l350 1400h275l-350 -1400h-275zM175 1500l263 350h300l87 -350h-275l-26 100l-74 -100h-275z" />
<glyph unicode="&#xcf;" horiz-adv-x="375" d="M0 0l350 1400h275l-350 -1400h-275zM175 1600l50 200h275l-50 -200h-275zM625 1600l50 200h275l-50 -200h-275z" />
<glyph unicode="&#xd0;" horiz-adv-x="925" d="M100 0l144 575h-100l50 200h100l156 625h425q257 0 257 -147q0 -24 -7 -53l-250 -1000q-50 -200 -350 -200h-425zM425 200h96q79 0 104 100l200 800q6 25 6 44q0 56 -55 56h-100l-106 -425h99l-50 -200h-100z" />
<glyph unicode="&#xd1;" d="M0 0l347 1400h278l38 -550l137 550h275l-350 -1400h-275l-37 550l-138 -550h-275zM375 1500l88 350h273l-18 -75q43 75 218 75q210 0 210 -141q0 -27 -8 -59l-38 -150h-275l11 50q6 26 6 44q0 56 -54 56h-25q-75 0 -100 -100l-13 -50h-275z" />
<glyph unicode="&#xd2;" d="M40 151q0 22 6 49l254 1000q50 200 348 200h123q261 0 261 -148q0 -24 -7 -52l-250 -1000q-50 -200 -349 -200h-125q-261 0 -261 151zM343 255q0 -55 53 -55h25q79 0 104 100l200 800q6 25 6 44q0 56 -55 56h-25q-76 0 -101 -100l-200 -800q-7 -26 -7 -45zM438 1650 l50 200h400q196 0 196 -169q0 -47 -15 -106l-19 -75h-250z" />
<glyph unicode="&#xd3;" d="M40 151q0 22 6 49l254 1000q50 200 348 200h123q261 0 261 -148q0 -24 -7 -52l-250 -1000q-50 -200 -349 -200h-125q-261 0 -261 151zM343 255q0 -55 53 -55h25q79 0 104 100l200 800q6 25 6 44q0 56 -55 56h-25q-76 0 -101 -100l-200 -800q-7 -26 -7 -45zM400 1500 l19 75q69 275 319 275h400l-50 -200l-438 -150h-250z" />
<glyph unicode="&#xd4;" d="M40 151q0 22 6 49l254 1000q50 200 348 200h123q261 0 261 -148q0 -24 -7 -52l-250 -1000q-50 -200 -349 -200h-125q-261 0 -261 151zM343 255q0 -55 53 -55h25q79 0 104 100l200 800q6 25 6 44q0 56 -55 56h-25q-76 0 -101 -100l-200 -800q-7 -26 -7 -45zM400 1500 l263 350h300l87 -350h-275l-26 100l-74 -100h-275z" />
<glyph unicode="&#xd5;" d="M40 151q0 22 6 49l254 1000q50 200 348 200h123q261 0 261 -148q0 -24 -7 -52l-250 -1000q-50 -200 -349 -200h-125q-261 0 -261 151zM343 255q0 -55 53 -55h25q79 0 104 100l200 800q6 25 6 44q0 56 -55 56h-25q-76 0 -101 -100l-200 -800q-7 -26 -7 -45zM375 1500 l88 350h273l-18 -75q43 75 218 75q210 0 210 -141q0 -27 -8 -59l-38 -150h-275l11 50q6 26 6 44q0 56 -54 56h-25q-75 0 -100 -100l-13 -50h-275z" />
<glyph unicode="&#xd6;" d="M40 151q0 22 6 49l254 1000q50 200 348 200h123q261 0 261 -148q0 -24 -7 -52l-250 -1000q-50 -200 -349 -200h-125q-261 0 -261 151zM343 255q0 -55 53 -55h25q79 0 104 100l200 800q6 25 6 44q0 56 -55 56h-25q-76 0 -101 -100l-200 -800q-7 -26 -7 -45zM400 1600 l50 200h275l-50 -200h-275zM850 1600l50 200h275l-50 -200h-275z" />
<glyph unicode="&#xd7;" horiz-adv-x="725" d="M25 100l287 426l-81 399h275l12 -99l63 99h275l-279 -412l73 -413h-250l-22 122l-78 -122h-275z" />
<glyph unicode="&#xd8;" d="M40 151q0 22 6 49l254 1000q50 200 348 200h123q261 0 261 -148q0 -24 -7 -52l-250 -1000q-50 -200 -349 -200h-125q-261 0 -261 151zM347 231q9 -31 49 -31h25q79 0 104 100l72 289zM478 811l250 357q-10 32 -52 32h-25q-76 0 -101 -100z" />
<glyph unicode="&#xd9;" d="M43 147q0 25 7 53l300 1200h275l-275 -1100q-6 -25 -6 -44q0 -56 56 -56h21q78 0 104 100l272 1100h278l-300 -1200q-50 -200 -349 -200h-125q-258 0 -258 147zM438 1650l50 200h400q196 0 196 -169q0 -47 -15 -106l-19 -75h-250z" />
<glyph unicode="&#xda;" d="M43 147q0 25 7 53l300 1200h275l-275 -1100q-6 -25 -6 -44q0 -56 56 -56h21q78 0 104 100l272 1100h278l-300 -1200q-50 -200 -349 -200h-125q-258 0 -258 147zM400 1500l19 75q69 275 319 275h400l-50 -200l-438 -150h-250z" />
<glyph unicode="&#xdb;" d="M43 147q0 25 7 53l300 1200h275l-275 -1100q-6 -25 -6 -44q0 -56 56 -56h21q78 0 104 100l272 1100h278l-300 -1200q-50 -200 -349 -200h-125q-258 0 -258 147zM400 1500l263 350h300l87 -350h-275l-26 100l-74 -100h-275z" />
<glyph unicode="&#xdc;" d="M43 147q0 25 7 53l300 1200h275l-275 -1100q-6 -25 -6 -44q0 -56 56 -56h21q78 0 104 100l272 1100h278l-300 -1200q-50 -200 -349 -200h-125q-258 0 -258 147zM400 1600l50 200h275l-50 -200h-275zM850 1600l50 200h275l-50 -200h-275z" />
<glyph unicode="&#xdd;" d="M225 0l175 700l-50 700h275l17 -272l158 272h275l-400 -700l-175 -700h-275zM400 1500l19 75q69 275 319 275h400l-50 -200l-438 -150h-250z" />
<glyph unicode="&#xde;" d="M0 0l350 1400h275l-69 -275h146q254 0 254 -192v-8l-106 -425q-55 -200 -325 -200h-175l-75 -300h-275zM400 500h100q75 0 100 100l56 225q6 25 6 44q0 56 -55 56h-101z" />
<glyph unicode="&#xdf;" d="M0 0l301 1200q50 200 347 200h124q263 0 263 -149q0 -24 -7 -51l-94 -375q-22 -75 -73 -100q27 -17 27 -57q0 -19 -6 -43l-106 -425q-50 -200 -349 -200h-77l50 200h26q74 0 93 75l63 250q2 16 2 30q0 70 -52 70h-26l50 200h20q81 0 106 100l44 175q6 25 6 44 q0 56 -55 56h-25q-75 0 -101 -100l-31 -126l-1 1l-244 -974z" />
<glyph unicode="&#xe0;" d="M43 147q0 25 7 53l50 200q44 175 319 175h175l38 150q6 25 6 44q0 56 -56 56q-76 0 -101 -100l-19 -75h-275l44 175q50 200 346 200h101q262 0 262 -148q0 -24 -7 -52l-208 -825h-250l19 75q-43 -75 -193 -75q-258 0 -258 147zM344 256q0 -56 56 -56h25q71 0 100 100 l25 100h-100q-75 0 -100 -100q-6 -25 -6 -44zM388 1350l50 200h400q196 0 196 -169q0 -47 -15 -106l-19 -75h-250z" />
<glyph unicode="&#xe1;" d="M43 147q0 25 7 53l50 200q44 175 319 175h175l38 150q6 25 6 44q0 56 -56 56q-76 0 -101 -100l-19 -75h-275l44 175q50 200 346 200h101q262 0 262 -148q0 -24 -7 -52l-208 -825h-250l19 75q-43 -75 -193 -75q-258 0 -258 147zM325 1200l19 75q69 275 319 275h400 l-50 -200l-438 -150h-250zM344 256q0 -56 56 -56h25q71 0 100 100l25 100h-100q-75 0 -100 -100q-6 -25 -6 -44z" />
<glyph unicode="&#xe2;" d="M43 147q0 25 7 53l50 200q44 175 319 175h175l38 150q6 25 6 44q0 56 -56 56q-76 0 -101 -100l-19 -75h-275l44 175q50 200 346 200h101q262 0 262 -148q0 -24 -7 -52l-208 -825h-250l19 75q-43 -75 -193 -75q-258 0 -258 147zM325 1200l263 350h300l87 -350h-275 l-26 100l-74 -100h-275zM344 256q0 -56 56 -56h25q71 0 100 100l25 100h-100q-75 0 -100 -100q-6 -25 -6 -44z" />
<glyph unicode="&#xe3;" d="M43 147q0 25 7 53l50 200q44 175 319 175h175l38 150q6 25 6 44q0 56 -56 56q-76 0 -101 -100l-19 -75h-275l44 175q50 200 346 200h101q262 0 262 -148q0 -24 -7 -52l-208 -825h-250l19 75q-43 -75 -193 -75q-258 0 -258 147zM300 1200l88 350h273l-18 -75q43 75 218 75 q210 0 210 -141q0 -27 -8 -59l-38 -150h-275l11 50q6 26 6 44q0 56 -54 56h-25q-75 0 -100 -100l-13 -50h-275zM344 256q0 -56 56 -56h25q71 0 100 100l25 100h-100q-75 0 -100 -100q-6 -25 -6 -44z" />
<glyph unicode="&#xe4;" d="M43 147q0 25 7 53l50 200q44 175 319 175h175l38 150q6 25 6 44q0 56 -56 56q-76 0 -101 -100l-19 -75h-275l44 175q50 200 346 200h101q262 0 262 -148q0 -24 -7 -52l-208 -825h-250l19 75q-43 -75 -193 -75q-258 0 -258 147zM300 1200l50 200h275l-50 -200h-275z M344 256q0 -56 56 -56h25q71 0 100 100l25 100h-100q-75 0 -100 -100q-6 -25 -6 -44zM750 1200l50 200h275l-50 -200h-275z" />
<glyph unicode="&#xe5;" d="M43 147q0 25 7 53l50 200q44 175 319 175h175l38 150q6 25 6 44q0 56 -56 56q-76 0 -101 -100l-19 -75h-275l44 175q50 200 346 200h101q262 0 262 -148q0 -24 -7 -52l-208 -825h-250l19 75q-43 -75 -193 -75q-258 0 -258 147zM344 256q0 -56 56 -56h25q71 0 100 100 l25 100h-100q-75 0 -100 -100q-6 -25 -6 -44zM525 1200l50 200h275l-50 -200h-275z" />
<glyph unicode="&#xe6;" horiz-adv-x="1275" d="M43 147q0 25 7 53l50 200q44 175 319 175h175l43 172q2 11 2 21q0 57 -57 57q-76 0 -101 -100l-19 -75h-275l44 175q50 200 346 200h101q98 0 160 -21q70 21 166 21h123q261 0 261 -148q0 -24 -7 -52l-92 -375h-450l-43 -169q-3 -15 -3 -26q0 -55 53 -55h25q78 0 104 100 l19 75h275l-44 -175q-50 -200 -349 -200h-401l19 75q-43 -75 -193 -75q-258 0 -258 147zM344 256q0 -56 56 -56h25q71 0 100 100l25 100h-100q-75 0 -100 -100q-6 -25 -6 -44zM882 625h174l25 100q6 25 6 44q0 56 -55 56h-25q-76 0 -101 -100z" />
<glyph unicode="&#xe7;" d="M-97 -375l50 200h178q72 0 97 100l20 77q-208 15 -208 149q0 23 6 49l160 625q50 200 348 200h123q261 0 261 -148q0 -24 -7 -52l-43 -175h-275l18 75q6 25 6 44q0 56 -55 56h-25q-76 0 -101 -100l-106 -425q-7 -26 -7 -45q0 -55 53 -55h25q79 0 104 100l19 75h275 l-44 -175q-41 -164 -249 -194l-45 -181q-53 -200 -328 -200h-250z" />
<glyph unicode="&#xe8;" d="M43 147q0 25 7 53l156 625q50 200 348 200h123q261 0 261 -148q0 -24 -7 -52l-92 -375h-450l-39 -150q-7 -26 -7 -45q0 -55 53 -55h25q78 0 104 100l19 75h275l-44 -175q-50 -200 -349 -200h-125q-258 0 -258 147zM388 1350l50 200h400q196 0 196 -169q0 -47 -15 -106 l-19 -75h-250zM432 625h174l25 100q6 25 6 44q0 56 -55 56h-25q-76 0 -101 -100z" />
<glyph unicode="&#xe9;" d="M43 147q0 25 7 53l156 625q50 200 348 200h123q261 0 261 -148q0 -24 -7 -52l-92 -375h-450l-39 -150q-7 -26 -7 -45q0 -55 53 -55h25q78 0 104 100l19 75h275l-44 -175q-50 -200 -349 -200h-125q-258 0 -258 147zM325 1200l19 75q69 275 319 275h400l-50 -200l-438 -150 h-250zM432 625h174l25 100q6 25 6 44q0 56 -55 56h-25q-76 0 -101 -100z" />
<glyph unicode="&#xea;" d="M43 147q0 25 7 53l156 625q50 200 348 200h123q261 0 261 -148q0 -24 -7 -52l-92 -375h-450l-39 -150q-7 -26 -7 -45q0 -55 53 -55h25q78 0 104 100l19 75h275l-44 -175q-50 -200 -349 -200h-125q-258 0 -258 147zM325 1200l263 350h300l87 -350h-275l-26 100l-74 -100 h-275zM432 625h174l25 100q6 25 6 44q0 56 -55 56h-25q-76 0 -101 -100z" />
<glyph unicode="&#xeb;" d="M43 147q0 25 7 53l156 625q50 200 348 200h123q261 0 261 -148q0 -24 -7 -52l-92 -375h-450l-39 -150q-7 -26 -7 -45q0 -55 53 -55h25q78 0 104 100l19 75h275l-44 -175q-50 -200 -349 -200h-125q-258 0 -258 147zM300 1200l50 200h275l-50 -200h-275zM432 625h174 l25 100q6 25 6 44q0 56 -55 56h-25q-76 0 -101 -100zM750 1200l50 200h275l-50 -200h-275z" />
<glyph unicode="&#xec;" horiz-adv-x="375" d="M0 0l256 1025h275l-256 -1025h-275zM138 1350l50 200h400q196 0 196 -169q0 -47 -15 -106l-19 -75h-250z" />
<glyph unicode="&#xed;" horiz-adv-x="375" d="M0 0l256 1025h275l-256 -1025h-275zM125 1200l19 75q69 275 319 275h400l-50 -200l-438 -150h-250z" />
<glyph unicode="&#xee;" horiz-adv-x="375" d="M0 0l256 1025h275l-256 -1025h-275zM100 1200l263 350h300l87 -350h-275l-26 100l-74 -100h-275z" />
<glyph unicode="&#xef;" horiz-adv-x="375" d="M0 0l256 1025h275l-256 -1025h-275zM75 1200l50 200h275l-50 -200h-275zM525 1200l50 200h275l-50 -200h-275z" />
<glyph unicode="&#xf0;" horiz-adv-x="925" d="M43 147q0 25 7 53l106 425q50 200 325 200h176l18 75h-275l50 200h275q6 25 6 44q0 56 -56 56h-25l50 200h79q253 0 253 -146q0 -25 -7 -54l-25 -100h100l-50 -200h-100l-175 -700q-50 -200 -325 -200h-149q-258 0 -258 147zM344 256q0 -56 56 -56h25q75 0 100 100 l56 225q6 25 6 44q0 56 -56 56h-25q-75 0 -100 -100l-56 -225q-6 -25 -6 -44z" />
<glyph unicode="&#xf1;" d="M0 0l256 1025h275l-17 -75q42 75 217 75q210 0 210 -141q0 -27 -8 -59l-208 -825h-275l181 725q6 26 6 44q0 56 -54 56h-25q-77 0 -102 -100l-181 -725h-275zM300 1200l88 350h273l-18 -75q43 75 218 75q210 0 210 -141q0 -27 -8 -59l-38 -150h-275l11 50q6 26 6 44 q0 56 -54 56h-25q-75 0 -100 -100l-13 -50h-275z" />
<glyph unicode="&#xf2;" d="M43 147q0 25 7 53l156 625q50 200 348 200h123q261 0 261 -148q0 -24 -7 -52l-156 -625q-50 -200 -349 -200h-125q-258 0 -258 147zM343 255q0 -55 53 -55h25q79 0 104 100l106 425q6 25 6 44q0 56 -55 56h-25q-76 0 -101 -100l-106 -425q-7 -26 -7 -45zM388 1350l50 200 h400q196 0 196 -169q0 -47 -15 -106l-19 -75h-250z" />
<glyph unicode="&#xf3;" d="M43 147q0 25 7 53l156 625q50 200 348 200h123q261 0 261 -148q0 -24 -7 -52l-156 -625q-50 -200 -349 -200h-125q-258 0 -258 147zM325 1200l19 75q69 275 319 275h400l-50 -200l-438 -150h-250zM343 255q0 -55 53 -55h25q79 0 104 100l106 425q6 25 6 44q0 56 -55 56 h-25q-76 0 -101 -100l-106 -425q-7 -26 -7 -45z" />
<glyph unicode="&#xf4;" d="M43 147q0 25 7 53l156 625q50 200 348 200h123q261 0 261 -148q0 -24 -7 -52l-156 -625q-50 -200 -349 -200h-125q-258 0 -258 147zM325 1200l263 350h300l87 -350h-275l-26 100l-74 -100h-275zM343 255q0 -55 53 -55h25q79 0 104 100l106 425q6 25 6 44q0 56 -55 56h-25 q-76 0 -101 -100l-106 -425q-7 -26 -7 -45z" />
<glyph unicode="&#xf5;" d="M43 147q0 25 7 53l156 625q50 200 348 200h123q261 0 261 -148q0 -24 -7 -52l-156 -625q-50 -200 -349 -200h-125q-258 0 -258 147zM300 1200l88 350h273l-18 -75q43 75 218 75q210 0 210 -141q0 -27 -8 -59l-38 -150h-275l11 50q6 26 6 44q0 56 -54 56h-25 q-75 0 -100 -100l-13 -50h-275zM343 255q0 -55 53 -55h25q79 0 104 100l106 425q6 25 6 44q0 56 -55 56h-25q-76 0 -101 -100l-106 -425q-7 -26 -7 -45z" />
<glyph unicode="&#xf6;" d="M43 147q0 25 7 53l156 625q50 200 348 200h123q261 0 261 -148q0 -24 -7 -52l-156 -625q-50 -200 -349 -200h-125q-258 0 -258 147zM300 1200l50 200h275l-50 -200h-275zM343 255q0 -55 53 -55h25q79 0 104 100l106 425q6 25 6 44q0 56 -55 56h-25q-76 0 -101 -100 l-106 -425q-7 -26 -7 -45zM750 1200l50 200h275l-50 -200h-275z" />
<glyph unicode="&#xf7;" horiz-adv-x="775" d="M144 575l50 200h675l-50 -200h-675zM269 275l50 200h275l-50 -200h-275zM419 875l50 200h275l-50 -200h-275z" />
<glyph unicode="&#xf8;" d="M43 147q0 25 7 53l156 625q50 200 348 200h123q261 0 261 -148q0 -24 -7 -52l-156 -625q-50 -200 -349 -200h-125q-258 0 -258 147zM349 225q12 -25 47 -25h25q79 0 104 100l36 143zM421 582l211 218q-13 25 -50 25h-25q-76 0 -101 -100z" />
<glyph unicode="&#xf9;" d="M42 143q0 26 8 57l206 825h275l-181 -725q-7 -26 -7 -45q0 -55 53 -55h25q78 0 104 100l181 725h275l-256 -1025h-275l19 75q-44 -75 -194 -75q-233 0 -233 143zM388 1350l50 200h400q196 0 196 -169q0 -47 -15 -106l-19 -75h-250z" />
<glyph unicode="&#xfa;" d="M42 143q0 26 8 57l206 825h275l-181 -725q-7 -26 -7 -45q0 -55 53 -55h25q78 0 104 100l181 725h275l-256 -1025h-275l19 75q-44 -75 -194 -75q-233 0 -233 143zM325 1200l19 75q69 275 319 275h400l-50 -200l-438 -150h-250z" />
<glyph unicode="&#xfb;" d="M42 143q0 26 8 57l206 825h275l-181 -725q-7 -26 -7 -45q0 -55 53 -55h25q78 0 104 100l181 725h275l-256 -1025h-275l19 75q-44 -75 -194 -75q-233 0 -233 143zM325 1200l263 350h300l87 -350h-275l-26 100l-74 -100h-275z" />
<glyph unicode="&#xfc;" d="M42 143q0 26 8 57l206 825h275l-181 -725q-7 -26 -7 -45q0 -55 53 -55h25q78 0 104 100l181 725h275l-256 -1025h-275l19 75q-44 -75 -194 -75q-233 0 -233 143zM300 1200l50 200h275l-50 -200h-275zM750 1200l50 200h275l-50 -200h-275z" />
<glyph unicode="&#xfd;" d="M42 143q0 26 8 57l206 825h275l-181 -725q-2 -15 -2 -28q0 -72 48 -72h25q78 0 104 100l181 725h275l-297 -1200q-53 -200 -328 -200h-250l50 200h178q72 0 97 100l38 150q-43 -75 -194 -75q-233 0 -233 143zM325 1200l19 75q69 275 319 275h400l-50 -200l-438 -150h-250 z" />
<glyph unicode="&#xfe;" d="M-94 -375l444 1775h275l-112 -450q43 75 193 75q233 0 233 -143q0 -26 -8 -57l-156 -625q-50 -200 -325 -200q-150 0 -155 75l-114 -450h-275zM340 247q0 -47 56 -47h25q80 0 99 75l111 450q6 26 6 44q0 56 -54 56h-25q-77 0 -102 -100l-112 -450q-4 -16 -4 -28z" />
<glyph unicode="&#xff;" d="M42 143q0 26 8 57l206 825h275l-181 -725q-2 -15 -2 -28q0 -72 48 -72h25q78 0 104 100l181 725h275l-297 -1200q-53 -200 -328 -200h-250l50 200h178q72 0 97 100l38 150q-43 -75 -194 -75q-233 0 -233 143zM300 1200l50 200h275l-50 -200h-275zM750 1200l50 200h275 l-50 -200h-275z" />
<glyph unicode="&#x2c6;" horiz-adv-x="750" d="M301 1200l263 350h300l87 -350h-275l-26 100l-74 -100h-275z" />
<glyph unicode="&#x2dc;" d="M375 1500l88 350h273l-18 -75q43 75 218 75q210 0 210 -141q0 -27 -8 -59l-38 -150h-275l11 50q6 26 6 44q0 56 -54 56h-25q-75 0 -100 -100l-13 -50h-275z" />
<glyph unicode="&#x2000;" horiz-adv-x="925" />
<glyph unicode="&#x2001;" horiz-adv-x="1850" />
<glyph unicode="&#x2002;" horiz-adv-x="925" />
<glyph unicode="&#x2003;" horiz-adv-x="1850" />
<glyph unicode="&#x2004;" horiz-adv-x="616" />
<glyph unicode="&#x2005;" horiz-adv-x="462" />
<glyph unicode="&#x2006;" horiz-adv-x="308" />
<glyph unicode="&#x2007;" horiz-adv-x="308" />
<glyph unicode="&#x2008;" horiz-adv-x="231" />
<glyph unicode="&#x2009;" horiz-adv-x="370" />
<glyph unicode="&#x200a;" horiz-adv-x="102" />
<glyph unicode="&#x2010;" horiz-adv-x="750" d="M144 575l50 200h650l-50 -200h-650z" />
<glyph unicode="&#x2011;" horiz-adv-x="750" d="M144 575l50 200h650l-50 -200h-650z" />
<glyph unicode="&#x2012;" horiz-adv-x="750" d="M144 575l50 200h650l-50 -200h-650z" />
<glyph unicode="&#x2013;" horiz-adv-x="750" d="M144 575l50 200h650l-50 -200h-650z" />
<glyph unicode="&#x2014;" horiz-adv-x="850" d="M144 575l50 200h750l-50 -200h-750z" />
<glyph unicode="&#x2018;" horiz-adv-x="375" d="M256 1025l50 200q44 175 194 175l-44 -175h125l-50 -200h-275z" />
<glyph unicode="&#x2019;" horiz-adv-x="375" d="M300 1200l50 200h275l-50 -200q-44 -175 -194 -175l44 175h-125z" />
<glyph unicode="&#x201a;" horiz-adv-x="375" d="M0 0l50 200h275l-50 -200q-44 -175 -194 -175l44 175h-125z" />
<glyph unicode="&#x201c;" horiz-adv-x="750" d="M256 1025l50 200q44 175 194 175l-44 -175h125l-50 -200h-275zM631 1025l50 200q44 175 194 175l-44 -175h125l-50 -200h-275z" />
<glyph unicode="&#x201d;" horiz-adv-x="750" d="M300 1200l50 200h275l-50 -200q-44 -175 -194 -175l44 175h-125zM675 1200l50 200h275l-50 -200q-44 -175 -194 -175l44 175h-125z" />
<glyph unicode="&#x201e;" horiz-adv-x="750" d="M0 0l50 200h275l-50 -200q-44 -175 -194 -175l44 175h-125zM375 0l50 200h275l-50 -200q-44 -175 -194 -175l44 175h-125z" />
<glyph unicode="&#x2022;" d="M94 351q0 22 6 49l150 600q50 200 348 200h123q261 0 261 -148q0 -24 -7 -52l-150 -600q-50 -200 -345 -200h-125q-261 0 -261 151z" />
<glyph unicode="&#x2026;" horiz-adv-x="1125" d="M0 0l50 200h275l-50 -200h-275zM375 0l50 200h275l-50 -200h-275zM750 0l50 200h275l-50 -200h-275z" />
<glyph unicode="&#x202f;" horiz-adv-x="370" />
<glyph unicode="&#x2039;" horiz-adv-x="750" d="M144 575l50 200l700 200l-50 -200l-356 -100l306 -100l-50 -200z" />
<glyph unicode="&#x203a;" horiz-adv-x="750" d="M94 375l50 200l356 100l-306 100l50 200l600 -200l-50 -200z" />
<glyph unicode="&#x205f;" horiz-adv-x="462" />
<glyph unicode="&#x20ac;" horiz-adv-x="925" d="M93 375l51 200h98l50 200h-98l50 200h99l57 225q50 200 348 200h123q261 0 261 -148q0 -24 -7 -52l-44 -175h-275l19 75q6 25 6 44q0 56 -55 56h-25q-76 0 -101 -100l-31 -125h275l-50 -200h-275l-50 -200h275l-50 -200h-275l-19 -75q-7 -26 -7 -45q0 -55 53 -55h25 q79 0 104 100l6 25h275l-31 -125q-50 -200 -349 -200h-125q-261 0 -261 151q0 22 6 49l45 175h-98z" />
<glyph unicode="&#x2122;" horiz-adv-x="1950" d="M294 375l206 825h-200l50 200h950l-18 -75q43 75 193 75q225 0 227 -105q48 105 223 105q233 0 233 -143q0 -26 -8 -57l-206 -825h-275l181 725q1 13 1 23q0 77 -49 77h-25q-77 0 -102 -100l-181 -725h-275l181 725q6 26 6 44q0 56 -54 56h-25q-77 0 -102 -100l-181 -725 h-275l206 825h-200l-206 -825h-275z" />
<glyph unicode="&#xe000;" horiz-adv-x="1025" d="M0 0v1025h1025v-1025h-1025z" />
</font>
</defs>
</svg>
