<?xml version="1.0" standalone="no"?>
<!DOCTYPE svg PUBLIC "-//W3C//DTD SVG 1.1//EN" "http://www.w3.org/Graphics/SVG/1.1/DTD/svg11.dtd" >
<svg xmlns="http://www.w3.org/2000/svg">
<metadata></metadata>
<defs>
<font id="magentaregular" horiz-adv-x="1636" >
<font-face units-per-em="2048" ascent="1638" descent="-410" />
<missing-glyph horiz-adv-x="819" />
<glyph horiz-adv-x="2048" />
<glyph horiz-adv-x="2048" />
<glyph unicode="&#xd;" horiz-adv-x="409" />
<glyph unicode=" "  horiz-adv-x="819" />
<glyph unicode="&#x09;" horiz-adv-x="819" />
<glyph unicode="&#xa0;" horiz-adv-x="819" />
<glyph unicode="!" horiz-adv-x="917" d="M0 100q0 45 29 123l493 1415h393q70 0 95 -8q70 -20 69 -90v-6q0 -43 -28 -117l-334 -958h-283l-28 -80h49q113 0 153 -43q23 -27 23 -68q0 -49 -31 -141l-43 -127h-420q-104 0 -127 55q-10 18 -10 45z" />
<glyph unicode="&#x22;" horiz-adv-x="1609" d="M0 1094q307 33 463 116h-119q-78 0 -98 9q-20 8 -37 22q-25 23 -25 66q0 47 37 139q39 113 113 158q23 14 49 22q33 12 100 12h346q80 0 105 -18q43 -23 43 -80q0 -43 -33 -123q-27 -90 -76 -139q-8 -10 -16 -18q-82 -84 -279 -150q-293 -94 -573 -16zM782 1094 q307 33 463 116h-119q-78 0 -98 9q-20 8 -37 22q-25 23 -24 66q0 47 37 139q39 113 112 158q23 14 49 22q33 12 101 12h346q80 0 104 -18q43 -23 43 -80q0 -43 -33 -123q-26 -90 -75 -139q-8 -10 -17 -18q-82 -84 -278 -150q-293 -94 -574 -16z" />
<glyph unicode="#" horiz-adv-x="1226" d="M0 365l70 196h424l-150 -442h-197l84 246h-231zM188 901l68 197h223l84 248h195l-150 -445h-420zM592 119l149 442h422l-69 -196h-222l-84 -246h-196zM592 119l149 442h422l-69 -196h-222l-84 -246h-196zM856 901l152 445h196l-84 -248h230l-70 -197h-424z" />
<glyph unicode="$" horiz-adv-x="1845" d="M0 102v15q0 35 29 119l49 139h536q-41 -121 -45 -139q-6 -25 -6 -41q0 -51 41 -76q37 -25 98 -25h25q147 0 182 74q12 27 174 498q16 53 -9 81.5t-130 28.5h-448q-176 0 -215 53q-12 18 -13 43q0 27 23 91l182 512q14 35 33 61q43 66 115 90q43 12 81 12h336l66 172h100 l-63 -172h272l66 172h100l-63 -172h194q156 0 174 -6q47 -8 70 -26q35 -27 35 -78q0 -43 -29 -121l-49 -145h-527l29 79q27 74 27 109q0 82 -101 98q-20 4 -63 4h-440l-27 -75h49q76 0 123 -25q41 -25 41 -80q0 -45 -14 -78l-82 -231h2q-6 -20 -15 -43q-23 -66 2 -100.5 t123 -32.5h471q170 0 207 -62q10 -16 10 -34v-5q0 -20 -22 -81l-191 -545q-12 -31 -34 -64q-68 -96 -199 -96h-375l-86 -229h-104l84 229h-269l-86 -229h-102l84 229h-219q-115 2 -150 18q-16 6 -34 25q-23 27 -23 59z" />
<glyph unicode="%" horiz-adv-x="2189" d="M0 848v2q0 31 23 88l202 571q14 35 31 60q31 45 78 61q28 10 63 10h777q66 0 81 -34q8 -14 9 -29v-6q0 -29 -25 -90l-207 -580q-10 -27 -26 -51q-47 -68 -138 -68h-780q-88 0 -88 66zM399 854h133q113 0 164 88q16 37 43 111l133 374q18 51 19 76q0 57 -70 70 q-14 2 -43 2h-307l-18 -53h32q55 0 86 -17q31 -18 31 -57q0 -31 -10 -53zM514 27l1155 1671l109 -82l-1153 -1669zM1022 66v4q0 31 22 86l203 573q14 35 29 59q31 45 80 62q28 10 63 10h774q68 0 84 -35q6 -14 7 -30v-4q0 -29 -23 -91l-209 -579q-10 -27 -24 -51 q-49 -68 -138 -68h-780q-88 0 -88 64zM1421 74h131q115 0 164 88q18 37 43 110l135 375q18 51 19 76q0 57 -70 68q-14 4 -43 4h-309l-18 -54h34q53 0 86 -18q29 -16 29 -55q0 -31 -10 -54z" />
<glyph unicode="&#x26;" horiz-adv-x="1835" d="M0 96v8q0 45 39 144l434 1222q16 41 45 78q70 90 199 90h551l69 187h101l-70 -187h465q139 0 172 -51q18 -25 18 -57v-12q0 -37 -30 -123l-49 -150h-568q45 127 51 158l3 27v6q0 72 -80 96q-31 8 -80 8h-443l-26 -80h55q84 0 131 -28q39 -27 39 -82q0 -47 -18 -90 l-119 -349h753l-34 -98h-1028l-29 -80h49q113 0 154 -43q23 -27 22 -67q0 -51 -33 -148l-137 -375h225q104 0 164 39q72 39 107 129q20 49 47 125h524q-68 -205 -76 -219q-51 -111 -149 -149q-61 -25 -152 -25h-538l-80 -215h-103l80 215h-524q-92 0 -121 51q-10 23 -10 45z " />
<glyph unicode="'" horiz-adv-x="829" d="M0 1094q307 33 463 116h-119q-78 0 -98 9q-20 8 -37 22q-25 23 -25 66q0 47 37 139q39 113 113 158q23 14 49 22q33 12 100 12h346q80 0 105 -18q43 -23 43 -80q0 -43 -33 -123q-27 -90 -76 -139q-8 -10 -16 -18q-82 -84 -279 -150q-293 -94 -573 -16z" />
<glyph unicode="(" horiz-adv-x="1232" d="M0 92v6q0 43 33 125l436 1227q20 51 43 86q43 66 113 90q41 12 90 12h733l-35 -94h-594l-26 -76h49q76 0 123 -24q43 -25 43 -80q0 -45 -15 -80l-420 -1182h369l-35 -102h-780q-127 0 -127 92z" />
<glyph unicode=")" horiz-adv-x="1232" d="M-82 0l37 94h592l26 76h-49q-76 0 -123 25q-43 25 -43 79q0 45 15 80l420 1182h-369l35 102h780q127 0 127 -92v-6q0 -43 -33 -125l-436 -1227q-20 -51 -43 -86q-43 -66 -113 -90q-41 -12 -90 -12h-733z" />
<glyph unicode="*" horiz-adv-x="1429" d="M0 1339l383 142l-174 362l366 -176l138 381l133 -381l366 176l-174 -362l383 -142l-383 -137l174 -366l-366 178l-133 -379l-138 379l-366 -178l174 366zM156 1341l299 -106l-136 -287l287 137l107 -294l104 294l287 -137l-135 287l299 106l-299 109l135 285l-287 -138 l-104 299l-107 -299l-287 138l136 -285z" />
<glyph unicode="+" horiz-adv-x="1429" d="M0 565l35 99h436l201 567h420q104 0 127 -55q10 -18 10 -46q0 -45 -29 -122l-121 -344h437l-35 -109h-725l-27 -80h55q84 0 131 -29q39 -27 39 -81q0 -47 -18 -91l-94 -274h-391q-70 0 -95 8q-70 20 -69 90v6q0 43 28 117l121 344h-436z" />
<glyph unicode="," horiz-adv-x="888" d="M0 -117q307 35 463 117h-119q-78 0 -98 8t-37 23q-25 23 -25 65q0 47 37 140q39 113 113 157q23 14 49 23q33 12 100 12h346q80 0 105 -18q43 -23 43 -80q0 -43 -33 -123q-27 -90 -76 -139q-8 -10 -16 -19q-82 -84 -279 -149q-293 -94 -573 -17z" />
<glyph unicode="-" horiz-adv-x="866" d="M102 555l35 109h764l-35 -109h-764z" />
<glyph unicode="." horiz-adv-x="888" d="M184 96q0 47 37 140q39 113 113 157q23 14 49 23q32 12 100 12h346q80 0 105 -18q43 -23 43 -80q0 -43 -33 -123q-37 -121 -110 -168q-18 -14 -50 -25q-35 -14 -114 -14h-326q-78 0 -98 8t-37 23q-25 23 -25 65z" />
<glyph unicode="/" horiz-adv-x="1341" d="M-143 -287l1587 2292l108 -82l-1585 -2290z" />
<glyph unicode="0" horiz-adv-x="1845" d="M0 92v6q0 43 33 125l436 1227q20 51 43 86q43 66 113 90q41 12 90 12h1153q94 0 119 -47q10 -23 10 -43v-10q0 -41 -35 -129l-442 -1239q-14 -37 -39 -74q-68 -96 -195 -96h-1159q-127 0 -127 92zM573 102h189q164 0 235 127q25 51 62 160l338 944q27 74 26 109 q0 82 -100 98q-20 4 -61 4h-443l-26 -76h49q76 0 123 -24q43 -25 43 -80q0 -45 -15 -80z" />
<glyph unicode="1" horiz-adv-x="966" d="M0 98v6q0 43 29 117l407 1163q66 162 -162 156h-65l37 98h698q104 0 127 -55q10 -18 10 -45q0 -45 -28 -123l-496 -1415h-393q-70 0 -94 8q-70 20 -70 90z" />
<glyph unicode="2" horiz-adv-x="1775" d="M0 0l127 346q29 59 145 119l625 389q219 123 272 272q119 344 119 361q-2 57 -141 57h-17q-43 0 -79 -10q-84 -23 -131 -90q-12 -16 -21 -35q-6 -8 -57 -141v-2h-537l53 143q27 78 56 121q37 51 90 78q37 18 88 26q23 6 178 6h1008q39 0 73 -12q55 -25 52 -90 q0 -27 -11 -61l-196 -557h-2q-8 -27 -19 -52q-33 -78 -104.5 -145.5t-222.5 -147.5l-672 -407h-246l-27 -68h1276l-34 -100h-1645z" />
<glyph unicode="3" horiz-adv-x="1953" d="M27 174q2 14 79 219h525q-29 -76 -41 -125q-31 -90 14 -129q33 -39 137 -39h226l127 375q35 96 69 148q31 41 72 67q72 43 184 43h49l27 80h-1028l35 98h753l127 349q12 43 45 90q39 55 97 82q68 29 151 28h56l28 80h-442q-49 0 -86 -8q-96 -25 -148 -96l-4 -6 q-6 -8 -16 -27q-16 -31 -59 -158h-568l56 150q31 86 57 123l8 12q23 33 59 57q68 51 207 51h1116q130 0 136 -90q2 -37 -11 -78l-428 -1222q-29 -98 -61 -144l-6 -8q-14 -23 -41 -45q-66 -51 -158 -51h-1165q-90 0 -133 25q-72 39 -45 149z" />
<glyph unicode="4" horiz-adv-x="1687" d="M-102 528l1085 1110h698q104 0 127 -55q10 -18 11 -45q0 -45 -29 -123l-277 -788h332l-35 -99h-331l-185 -528h-393q-70 0 -94 8q-70 20 -70 90v6q0 43 29 117l106 307h-974zM188 627h719q254 727 258 735q23 49 68 70q18 8 41 14q45 8 98 8l27 76h-322z" />
<glyph unicode="5" horiz-adv-x="1845" d="M0 102v15q0 35 29 119l49 139h536q-41 -121 -45 -139q-6 -25 -6 -41q0 -51 41 -76q37 -25 98 -25h25q147 0 182 74q12 27 174 498q16 53 -9 81.5t-130 28.5h-721l312 862h1175q156 0 174 -6q47 -8 70 -26q35 -27 35 -78q0 -43 -29 -121l-49 -145h-537v2q45 135 45 143 q4 18 4 35q0 68 -67 90q-31 10 -74 10h-463l-26 -80h55q84 0 131 -28q39 -27 39 -82q0 -35 -10 -68l-146 -397h647q170 0 207 -62q10 -16 10 -34v-5q0 -20 -22 -81l-191 -545q-12 -31 -34 -64q-68 -96 -199 -96h-1073q-115 2 -150 18q-16 6 -34 25q-23 27 -23 59z" />
<glyph unicode="6" horiz-adv-x="1705" d="M0 96q0 43 31 125l448 1260q20 49 58 90q66 68 176 67h1099l-36 -98h-578q-127 0 -151 -78l-193 -532h702q80 0 107 -15q47 -23 47 -81q0 -43 -29 -115l-188 -518q-20 -59 -43 -95q-68 -106 -205 -106h-1116q-92 0 -119 47q-10 20 -10 49zM303 94h461q158 0 231 123 q20 41 45 113q113 307 123 336q11 41 11 61q0 68 -68 90q-29 12 -80 12h-207l-186 -503q-53 -102 -133 -133q-61 -23 -170 -23z" />
<glyph unicode="7" horiz-adv-x="1261" d="M0 1540l27 98h1218q104 0 127 -55q10 -18 10 -45q0 -45 -28 -123l-496 -1415h-393q-70 0 -94 8q-70 20 -70 90v6q0 43 29 117l405 1163q59 164 -160 156h-575z" />
<glyph unicode="8" horiz-adv-x="1933" d="M29 174q172 492 198 528l9 13q25 33 59 57q53 39 145 49q-29 6 -49 17q-72 39 -45 149l150 410q29 84 55 121l10 14q20 31 57 55q68 51 201 53v2h1096q139 0 172 -53q18 -25 18 -55v-14q0 -37 -30 -121l-140 -410q-51 -111 -149 -149q-29 -10 -62 -17q86 -10 111 -49 q18 -25 18 -57v-12q0 -37 -174 -529q-49 -111 -147 -149q-63 -25 -154 -25h-1032v-2h-139q-90 0 -135 25q-72 39 -43 149zM633 735h51q113 0 154 -41q20 -27 20 -67q0 -53 -33 -148l-135 -377h223q104 0 166 39q63 37 101 113q137 393 141 424q2 18 2 27v6q0 72 -80 96 q-31 8 -80 8h-501zM883 1462h55q84 0 131 -28q39 -27 39 -80q0 -49 -18 -92l-119 -347h159q104 0 164 39q72 39 107 129q104 295 108 322q4 18 4 29v4q0 72 -81 96q-31 8 -78 8h-443z" />
<glyph unicode="9" horiz-adv-x="1847" d="M0 0l39 100h688q141 0 180 68q16 27 156 418h-703q-80 0 -106 14q-47 23 -47 82q0 43 29 115l227 641q20 59 43 94q68 106 205 106h1116q92 0 119 -47q10 -20 10 -49q0 -43 -31 -125l-448 -1259q-20 -49 -58 -90q-66 -68 -176 -68h-1243zM743 788q0 -68 68 -90 q29 -12 80 -12h207l225 627q53 102 133 133q61 23 170 22l27 76h-461q-158 0 -231 -123q-20 -41 -46 -112q-152 -430 -161 -459q-11 -42 -11 -62z" />
<glyph unicode=":" horiz-adv-x="878" d="M82 98q0 47 37 140q39 113 112 157q23 14 50 23q32 12 100 12h346q80 0 104 -18q43 -23 43 -80q0 -43 -32 -123q-37 -121 -111 -168q-18 -14 -49 -25q-35 -14 -115 -14h-325q-78 0 -99 8q-20 8 -37 23q-25 23 -24 65zM328 733q0 47 37 139q39 113 112 158q23 14 49 23 q33 12 101 12h346q80 0 104 -18q43 -23 43 -80q0 -43 -33 -123q-37 -121 -110 -168q-18 -14 -49 -25q-35 -14 -115 -14h-326q-78 0 -98 8t-37 23q-25 23 -24 65z" />
<glyph unicode=";" horiz-adv-x="980" d="M0 -117q307 35 463 117h-119q-78 0 -98 8t-37 23q-25 23 -25 65q0 47 37 140q39 113 113 157q23 14 49 23q33 12 100 12h346q80 0 105 -18q43 -23 43 -80q0 -43 -33 -123q-27 -90 -76 -139q-8 -10 -16 -19q-82 -84 -279 -149q-293 -94 -573 -17zM416 733q0 47 37 139 q39 113 112 158q23 14 49 23q33 12 101 12h346q80 0 104 -18q43 -23 43 -80q0 -43 -32 -123q-37 -121 -111 -168q-18 -14 -49 -25q-35 -14 -115 -14h-326q-78 0 -98 8t-37 23q-25 23 -24 65z" />
<glyph unicode="&#x3c;" horiz-adv-x="858" d="M0 631l68 196l870 320l-78 -215l-596 -219l443 -215l-64 -179z" />
<glyph unicode="=" horiz-adv-x="1228" d="M82 412l35 98h1132l-35 -98h-1132zM82 709l35 98h1132l-35 -98h-1132z" />
<glyph unicode="&#x3e;" horiz-adv-x="937" d="M0 311l76 211l606 223l-449 220l64 178l649 -316l-65 -196z" />
<glyph unicode="?" horiz-adv-x="1472" d="M61 100q0 45 29 123l207 596h334q104 0 164 39q72 39 106 129q16 41 39 103q2 8 6 14q0 4 2 8q23 63 49 145q12 43 45 91q39 55 97 82q68 29 151 28h56l28 74h-1304l55 106h1350q104 0 127 -55q10 -18 10 -45q0 -45 -29 -123l-156 -446q-23 -63 -30 -76 q-51 -111 -150 -150q-61 -25 -151 -24h-228l-90 -260h-282l-29 -80h49q113 0 154 -43q23 -27 22 -68q0 -49 -30 -141l-44 -127h-419q-104 0 -127 55q-10 18 -11 45z" />
<glyph unicode="@" horiz-adv-x="1839" d="M-6 471q-35 424 256 732t774 308q252 -20 422 -96t275.5 -216t119.5 -240.5t15.5 -120t1.5 -33.5q0 -156 -54.5 -310.5t-142.5 -223t-162 -96.5t-168 -28q-53 0 -106 21q-39 12 -68 39h-682q-72 0 -98 22q-20 16 -21 50v2q0 27 17 67l82 234q33 70 90 94q10 6 37 12 q27 4 80 4h409l86 252h-92q-49 0 -66 -4q-25 -8 -38 -14q-53 -27 -76 -82q-10 -31 -29 -82h-324l46 131q6 16 16 35q31 45 78 63q35 14 104 15h666q55 0 74 -21q16 -16 16 -39v-4q0 -27 -21 -78l-184 -516q4 -27 21 -41q20 -23 63 -22q20 0 64.5 9t99.5 74.5t101 178 t46 252.5q0 88 -23.5 168t-100 187.5t-260 165.5t-355.5 58q-322 -10 -560.5 -221t-248.5 -622q0 -209 112.5 -379t272.5 -263.5t332 -93.5q199 0 369 43q154 39 315 131l-59 -149q-107 -55 -218 -90q-190 -61 -378 -62q-246 0 -453 102.5t-331 289t-142 407.5zM700 336 q0 -45 50 -60q18 -8 47 -8h297l18 49h-22q-84 0 -107 31q-10 14 -10 37q0 31 8 51l68 197h-127q-76 0 -123 -49q-20 -23 -29 -43q-12 -25 -29 -70q-27 -74 -34 -104q-6 -18 -7 -31z" />
<glyph unicode="A" horiz-adv-x="1597" d="M-143 0l968 1638h475q127 0 166 -86q18 -39 19 -118v-1434h-418q-82 0 -115 18q-90 39 -90 168v246h-563l-240 -432h-202zM397 590h748v2l29 76q-133 0 -170 10q-25 6 -43 14q-55 25 -76 80q-20 45 -21 133q-2 88 -2 303v158l-8 -8z" />
<glyph unicode="B" horiz-adv-x="1878" d="M0 0l584 1640h1259q139 0 172 -53q18 -25 19 -55v-14q0 -37 -31 -121l-139 -410q-51 -111 -150 -149q-29 -10 -61 -17q86 -10 110 -49q18 -25 19 -57v-13q0 -37 -174 -528q-49 -111 -148 -149q-63 -25 -153 -25h-1307zM561 733h51q113 0 154 -41q20 -27 20 -67 q0 -53 -32 -148l-136 -377h224q104 0 166 39q63 37 100 113q137 393 141 424q2 18 2 26v7q0 72 -80 96q-30 8 -79 8h-502zM811 1460h55q84 0 131 -28q39 -27 39 -80q0 -49 -18 -92l-119 -347h160q104 0 164 39q72 39 106 129q105 295 109 322q4 18 4 29v4q0 72 -82 96 q-31 8 -78 8h-442z" />
<glyph unicode="C" horiz-adv-x="1845" d="M0 96v8q0 45 39 144l434 1222q16 41 45 78q70 90 199 90h1075q139 0 172 -51q18 -25 18 -57v-12q0 -37 -30 -123l-49 -150h-568q45 127 51 158l3 27v6q0 72 -80 96q-31 8 -80 8h-443l-26 -80h55q84 0 131 -28q39 -27 39 -82q0 -47 -18 -90l-402 -1160h226q104 0 163 39 q72 39 107 129q20 49 47 125h524q-68 -205 -76 -219q-51 -111 -149 -149q-61 -25 -152 -25h-1124q-92 0 -121 51q-10 23 -10 45z" />
<glyph unicode="D" horiz-adv-x="1839" d="M0 0l582 1638h1253q94 0 119 -47q10 -23 10 -43v-10q0 -41 -35 -129l-442 -1239q-14 -37 -39 -74q-68 -96 -195 -96h-1253zM582 102h188q164 0 236 127q25 51 61 160l338 944q27 74 27 109q0 82 -101 98q-20 4 -61 4h-443l-26 -76h49q76 0 123 -24q43 -25 43 -80 q0 -45 -15 -80z" />
<glyph unicode="E" horiz-adv-x="1845" d="M0 96v8q0 45 39 144l434 1222q16 41 45 78q70 90 199 90h1075q139 0 172 -51q18 -25 18 -57v-12q0 -37 -30 -123l-49 -150h-568q45 127 51 158l3 27v6q0 72 -80 96q-31 8 -80 8h-443l-26 -80h55q84 0 131 -28q39 -27 39 -82q0 -47 -18 -90l-119 -349h754l-35 -98h-1028 l-29 -80h49q113 0 154 -43q23 -27 22 -67q0 -51 -33 -148l-137 -375h226q104 0 163 39q72 39 107 129q20 49 47 125h524q-68 -205 -76 -219q-51 -111 -149 -149q-61 -25 -152 -25h-1124q-92 0 -121 51q-10 23 -10 45z" />
<glyph unicode="F" horiz-adv-x="1705" d="M0 96v8q0 45 39 144l434 1222q16 41 45 78q70 90 199 90h1075q139 0 172 -51q18 -25 18 -57v-12q0 -37 -30 -123l-49 -150h-568q45 127 51 158l3 27v6q0 72 -80 96q-31 8 -80 8h-443l-26 -80h55q84 0 131 -28q39 -27 39 -82q0 -47 -18 -90l-119 -349h713l-35 -98h-987 l-29 -80h49q113 0 154 -43q23 -27 22 -67q0 -51 -39 -148l-168 -475h-397q-92 0 -121 51q-10 23 -10 45z" />
<glyph unicode="G" horiz-adv-x="1845" d="M0 96v8q0 45 39 144l434 1222q16 41 45 78q70 90 199 90h1075q139 0 172 -51q18 -25 18 -57v-12q0 -37 -30 -123l-49 -150h-568q45 127 51 158l3 27v6q0 72 -80 96q-31 8 -80 8h-443l-26 -80h55q84 0 131 -28q39 -27 39 -82q0 -47 -18 -90l-402 -1160h226q104 0 163 39 q72 39 107 129l98 269q13 33 13 57q0 50 -59 55q-87 8 -157 8l29 84h766l-180 -532q-47 -147 -164 -184q-61 -25 -152 -25h-1124q-92 0 -121 51q-10 23 -10 45z" />
<glyph unicode="H" horiz-adv-x="2045" d="M0 0l578 1638h571l-277 -800h713l29 80h-49q-113 0 -154 43q-23 27 -22 67q0 51 32 148l170 462h584l-571 -1638h-572l244 739h-713l-28 -80h49q113 0 153 -43q23 -27 23 -67q0 -51 -35 -152l-143 -397h-582z" />
<glyph unicode="I" horiz-adv-x="942" d="M0 98v6q0 43 29 117l333 959h283l29 80h-49q-113 0 -154 43q-23 27 -22 67q0 49 30 141l43 127h379q104 0 127 -55q10 -18 10 -45q0 -45 -28 -123l-494 -1415h-352q-70 0 -94 8q-70 20 -70 90z" />
<glyph unicode="J" horiz-adv-x="1093" d="M-850 -197q0 35 33 125l10 27h539q-14 -37 -15 -43q-2 -14 -2 -29q0 -70 72 -92q31 -8 66 -8h26q141 0 180 67q16 27 52 136l417 1194h283l29 80h-49q-113 0 -154 43q-23 27 -23 67q0 49 31 141h-2l45 127h379q104 0 127 -55q10 -18 10 -45q0 -45 -28 -123l-549 -1571 q-20 -49 -58 -90q-65 -67 -173 -67h-3h-1059q-121 2 -157 39q-27 27 -27 63v14z" />
<glyph unicode="K" horiz-adv-x="1961" d="M0 96v8q0 45 39 144l348 979h-4l143 411h400q104 0 127 -55q10 -18 10 -45q0 -45 -29 -123l-186 -504h483l29 76h-111q-113 0 -131 35q-5 10 -5 21q0 29 32 67l397 528h639l-620 -792l168 -846h-386q-123 0 -174 42t-67 146l-103 625h-458l-31 -80h51q113 0 154 -43 q23 -27 22 -67q0 -51 -35 -148l-157 -475h-412q-94 0 -123 51q-10 20 -10 45z" />
<glyph unicode="L" horiz-adv-x="1581" d="M2 90v11q0 33 10 67l434 1223q31 98 64 143l4 8q16 23 43 45q63 51 158 51h397l-457 -1259q-12 -41 -47 -90q-37 -55 -94 -82q-70 -29 -154 -29h-55l-29 -78h443q49 0 86 6q98 25 147 97l4 6q8 10 19 27q14 31 59 157h568q-86 -233 -113 -272l-10 -12q-23 -33 -58 -58 q-70 -51 -211 -51h-1073q-131 0 -135 90z" />
<glyph unicode="M" horiz-adv-x="2580" d="M-49 0l581 1638h558q127 0 165 -86q18 -39 19 -118v-975l420 1179h557q127 0 166 -86q18 -39 18 -118v-1434h-397q-82 0 -115 18q-90 39 -90 168v1039q2 51 8 90q6 31 14 47q23 49 68 70q18 8 41 14q45 8 98 8l27 76h-240l-532 -1530h-440q-82 0 -115 18q-90 39 -90 168 v1039q2 51 8 90q6 31 14 47q23 49 68 70q18 8 41 14q45 8 98 8l27 76h-244l-530 -1530h-203z" />
<glyph unicode="N" horiz-adv-x="1914" d="M0 0l582 1638h639q127 0 165 -86q18 -39 19 -118v-975l420 1179h196l-573 -1638h-440q-82 0 -115 18q-90 39 -90 168v1039q2 51 8 90q6 31 14 47q23 49 68 70q18 8 41 14q45 8 98 8l27 76h-322l-534 -1530h-203z" />
<glyph unicode="O" horiz-adv-x="1835" d="M0 92v6q0 43 33 125l436 1227q20 51 43 86q43 66 113 90q41 12 90 12h1153q94 0 119 -47q10 -23 10 -43v-10q0 -41 -35 -129l-442 -1239q-14 -37 -39 -74q-68 -96 -195 -96h-1159q-127 0 -127 92zM553 102h188q164 0 236 127q25 51 61 160l338 944q27 74 27 109 q0 82 -100 98q-20 4 -62 4h-442l-27 -76h49q76 0 123 -24q43 -25 43 -80q0 -45 -14 -80z" />
<glyph unicode="P" horiz-adv-x="1914" d="M0 0l516 1450q18 51 41 86q43 66 111 88q41 14 90 14h1153q94 0 121 -49q10 -20 10 -43v-8q0 -41 -35 -129l-297 -829q-14 -39 -39 -74q-68 -96 -196 -96h-746l-143 -410h-586zM764 518h188q164 0 236 127q25 51 61 158l193 536q27 74 26 109q0 82 -100 98q-20 4 -63 4 h-441l-26 -75h49q76 0 123 -25q41 -25 41 -80q0 -45 -15 -78z" />
<glyph unicode="Q" horiz-adv-x="1839" d="M0 92v6q0 43 33 125l436 1227q20 51 43 86q43 66 113 90q41 12 90 12h1153q94 0 119 -47q10 -23 10 -43v-10q0 -41 -35 -129l-442 -1239q-14 -37 -39 -74q-68 -96 -195 -96h-1159q-127 0 -127 92zM473 -131l27 76h442q41 0 62 -4q100 -16 100 -99q0 -34 -27 -108 q-14 -35 -14 -80q0 -55 43 -80q47 -25 123 -25h49l-27 -75h-442q-41 0 -61 4q-100 16 -101 98q0 35 27 109q14 35 14 79q0 55 -43 80q-47 25 -123 25h-49zM553 102h188q164 0 236 127q25 51 61 160l338 944q27 74 27 109q0 82 -100 98q-20 4 -62 4h-442l-27 -76h49 q76 0 123 -24q43 -25 43 -80q0 -45 -14 -80z" />
<glyph unicode="R" horiz-adv-x="1933" d="M0 0l516 1450q18 51 41 86q43 66 111 88q41 14 90 14h1153q94 0 121 -49q10 -20 10 -43v-8q0 -41 -35 -129l-297 -829q-14 -39 -39 -74q-59 -86 -170 -94q74 -6 96 -50q10 -20 11 -43v-8q0 -41 -35 -129l-60 -180l-542 -2l71 203q27 74 27 108q0 83 -100 99h-240 l-143 -410h-586zM762 518h188q164 0 236 127q25 51 61 158l193 536q27 74 26 109q0 82 -100 98q-20 4 -63 4h-441l-26 -75h49q76 0 123 -25q41 -25 41 -80q0 -45 -15 -78z" />
<glyph unicode="S" horiz-adv-x="1845" d="M0 102v15q0 35 29 119l49 139h536q-41 -121 -45 -139q-6 -25 -6 -41q0 -51 41 -76q37 -25 98 -25h25q147 0 182 74q12 27 174 498q6 21 6 38q0 26 -15 44q-25 28 -130 28h-448q-176 0 -215 53q-12 18 -13 43q0 27 23 91l182 512q14 35 33 61q43 66 115 90q43 12 81 12 h1008q156 0 174 -6q47 -8 70 -26q35 -27 35 -78q0 -43 -29 -121l-49 -145h-527l29 79q27 74 27 109q0 82 -101 98q-20 4 -63 4h-440l-27 -75h49q76 0 123 -25q41 -25 41 -80q0 -45 -14 -78l-82 -231h2q-6 -20 -15 -43q-11 -32 -11 -56q0 -26 13 -44q24 -33 112 -33h11h471 q170 0 207 -62q10 -16 10 -34v-5q0 -20 -22 -81l-191 -545q-12 -31 -34 -64q-68 -96 -199 -96h-1073q-115 2 -150 18q-16 6 -34 25q-23 27 -23 59z" />
<glyph unicode="T" horiz-adv-x="1466" d="M-57 1540l34 98h1770l-35 -98h-805l-26 -80h55q84 0 131 -28q39 -27 39 -82q0 -47 -19 -90l-438 -1260h-397q-92 0 -121 51q-10 23 -10 45v8q0 45 39 144l458 1292h-675z" />
<glyph unicode="U" horiz-adv-x="1943" d="M0 90v10q0 41 35 129l504 1409h538l-477 -1333q-27 -74 -27 -108q0 -82 101 -99q20 -4 61 -4h443l26 76h-49q-76 0 -123 25q-43 25 -43 79q0 45 15 80l456 1284h590l-522 -1450q-20 -51 -43 -86q-43 -66 -113 -90q-41 -12 -90 -12h-1153q-94 0 -119 47q-10 23 -10 43z " />
<glyph unicode="V" horiz-adv-x="1478" d="M150 205v1433h397q82 0 115 -18q90 -39 90 -168v-1059q-2 -51 -9 -90q-6 -31 -14 -47q-23 -49 -67 -70q-18 -8 -41 -14q-45 -8 -99 -8l-26 -70h333l543 1544h203l-582 -1638h-659q-127 0 -166 86q-18 39 -18 119z" />
<glyph unicode="W" horiz-adv-x="2465" d="M150 205v1433h397q82 0 115 -18q90 -39 90 -168v-1059q-2 -51 -9 -90q-6 -31 -14 -47q-23 -49 -67 -70q-18 -8 -41 -14q-45 -8 -99 -8l-26 -70h231l543 1544h399q82 0 115 -18q90 -39 90 -168v-1059q-2 -51 -8 -90q-6 -31 -15 -47q-23 -49 -67 -70q-18 -8 -41 -14 q-45 -8 -98 -8l-27 -70h231l543 1544h203l-582 -1638h-557q-127 0 -166 86q-18 39 -18 119l2 872l-383 -1077h-557q-127 0 -166 86q-18 39 -18 119z" />
<glyph unicode="X" horiz-adv-x="1863" d="M-143 0l755 786l-180 852h572q143 -668 143 -671l661 671h189l-815 -841h-271l-26 -76h88q127 0 188 -51q29 -29 35 -39q29 -41 43 -113l109 -518h-572l-129 623l-596 -623h-194z" />
<glyph unicode="Y" horiz-adv-x="1720" d="M-88 0l43 96h358q45 0 88 13.5t64.5 76t21.5 154.5v1298h545v-886q-6 -102 -12 -142q-6 -31 -14 -47q-23 -49 -68 -69q-18 -8 -41 -15q-45 -8 -98 -8l-27 -76h266l648 1243h155l-704 -1337h-2q-96 -176 -226 -238q-129 -63 -409 -63h-588z" />
<glyph unicode="Z" horiz-adv-x="1429" d="M-145 0l850 1260q76 137 161 172q64 28 144 28h6h35l30 80h-948l33 98h1364l-789 -1259q-84 -137 -170 -172q-66 -29 -149 -29h-27l-30 -80h1009l-33 -98h-1486z" />
<glyph unicode="[" horiz-adv-x="2015" d="M0 -80q0 45 39 143l567 1594q16 41 45 78q70 90 199 90h1116q139 0 172 -51q18 -25 19 -58v-12q0 -37 -31 -123l-49 -149h-568q45 127 52 157q2 18 2 27v6q0 72 -80 96q-31 8 -80 8h-442l-27 -79h55q84 0 131 -29q39 -27 39 -82q0 -47 -18 -90l-535 -1530h225 q104 0 164 39q72 39 107 129q20 49 47 125h524q-68 -205 -76 -219q-51 -111 -149 -150q-61 -25 -152 -24h-1165q-92 0 -121 51q-10 23 -10 45v8z" />
<glyph unicode="\" horiz-adv-x="1282" d="M-236 1923l109 82l1587 -2290l-110 -80z" />
<glyph unicode="]" horiz-adv-x="2037" d="M0 -63q0 37 31 122l49 150h567q-45 -127 -51 -158q-2 -18 -2 -26v-7q0 -72 80 -96q31 -8 80 -8h442l27 80h-56q-84 0 -131 29q-39 27 -39 81q0 47 19 91l534 1529h-225q-104 0 -164 -38q-72 -39 -106 -130q-20 -49 -47 -124h-525q68 205 76 219q51 111 150 149 q61 25 151 25h1165q92 0 121 -51q10 -23 11 -45v-9q0 -45 -39 -143l-568 -1593q-16 -41 -45 -78q-69 -90 -198 -90h-1117q-139 0 -172 51q-18 25 -18 57v13z" />
<glyph unicode="^" horiz-adv-x="1232" d="M0 1376q420 160 547 266q96 80 180 78q86 2 150 -78q84 -106 442 -268q-256 -59 -496 12q-92 29 -149 62q-72 -33 -176 -62q-268 -72 -498 -10z" />
<glyph unicode="_" horiz-adv-x="1232" d="M-307 -217l35 98h1831l-35 -98h-1831z" />
<glyph unicode="`" horiz-adv-x="937" d="M38 1577q-38 127 79 160q131 39 252 -81t567 -302q-279 -70 -569.5 13t-328.5 210z" />
<glyph unicode="a" horiz-adv-x="1687" d="M0 109v4q0 41 25 102l127 360q49 109 139 146q16 10 57 18q39 8 123 9h629l133 387h-141q-76 0 -101 -9q-39 -10 -59 -20q-82 -41 -117 -127q-18 -45 -45 -125h-498l68 201q10 25 27 53q47 70 118 98q55 23 160 23h1028q84 0 113 -31q25 -25 24 -61v-7q0 -41 -30 -118 l-293 -817q-18 -53 -41 -91q-12 -16 -37 -43q-64 -61 -168 -61h-1059q-111 0 -149 33q-33 27 -33 76zM530 197q0 -70 74 -93q29 -10 74 -10h459l26 76h-33q-131 0 -163 45q-18 23 -19 59q0 45 15 78l102 301h-195q-117 0 -190 -75q-31 -33 -43 -64q-18 -39 -43 -108 q-41 -113 -55 -160q-8 -31 -9 -49z" />
<glyph unicode="b" horiz-adv-x="1687" d="M23 188l475 1354h393q104 0 127 -55q10 -18 10 -45q0 -45 -29 -123l-30 -90h704q129 0 129 -96q0 -35 -14 -74l-287 -830q-29 -88 -57 -129l-4 -8q-16 -23 -41 -43q-61 -49 -156 -49h-1112q-49 0 -80 14q-49 22 -49 83q0 34 21 91zM303 94h440q43 0 68 4q111 16 170 99 q25 35 49 108l187 537q37 106 49 157q2 13 2 24q0 103 -148 103h-188l-35 -100l-240 -674q-8 -33 -41 -78q-39 -55 -96 -79q-66 -25 -141 -25h-49z" />
<glyph unicode="c" horiz-adv-x="1695" d="M0 88v12q0 41 35 127l301 832q18 45 43 78q67 92 194 92h1061q125 0 160 -43q23 -25 23 -68t-25 -119q-51 -145 -53 -145h-537q41 125 43 135q6 23 6 43v2q0 74 -82 94q-25 6 -71 7h-418l-29 -76h49q68 0 115 -19q51 -25 51 -82q0 -55 -28 -131l-258 -733h151 q166 0 238 135q10 25 57 146h537l-80 -211q-49 -104 -144 -141q-55 -23 -147 -23h-1067q-90 0 -117 49q-8 20 -8 39z" />
<glyph unicode="d" horiz-adv-x="1796" d="M0 92v8q0 41 35 129l297 830q14 39 39 74q68 96 196 96h705l106 313h586l-479 -1354q-18 -51 -41 -86q-43 -66 -111 -88q-41 -14 -90 -14h-1112q-94 0 -121 49q-10 20 -10 43zM532 197q0 -82 101 -99q20 -4 63 -4h441l26 76h-49q-76 0 -123 25q-41 25 -41 79q0 45 15 78 l272 774h-188q-164 0 -236 -127q-25 -51 -61 -157l-193 -537q-27 -74 -27 -108z" />
<glyph unicode="e" horiz-adv-x="1695" d="M0 92v6q0 41 31 119l293 817q18 53 41 90q10 16 36 43q62 62 166 62h1061q111 0 150 -33q33 -27 32 -78v-2q0 -41 -24 -102l-129 -361q-47 -109 -137 -147q-18 -8 -58 -17q-39 -8 -123 -8h-628l-133 -387h141q76 0 100 8q39 10 60 21q82 41 114 127q20 45 47 125h498 l-68 -201q-10 -25 -28 -55q-45 -68 -117 -96q-55 -23 -160 -23h-1030q-82 0 -110 31q-25 25 -25 61zM647 1059h33q131 0 164 -45q16 -23 16 -60q0 -45 -12 -77l-105 -302h197q117 0 190 76q31 33 44 64q18 39 40 108q43 113 56 160q8 31 8 49q0 70 -72 92q-29 10 -73 11 h-459z" />
<glyph unicode="f" horiz-adv-x="1228" d="M-61 -197q0 45 38 144l537 1523q16 41 45 78q70 90 199 90h891l-35 -98h-787l-26 -80h55q84 0 131 -28q39 -27 39 -82q0 -47 -18 -90l-39 -119h364l-35 -99h-639l-28 -79h49q113 0 154 -43q23 -27 22 -68q0 -51 -39 -147l-350 -1006h-397q-92 0 -121 51q-10 23 -10 45v8z " />
<glyph unicode="g" d="M-168 -195q0 35 33 125l12 27h535q-13 -37 -13 -43q-2 -14 -2 -29q0 -70 72 -92q31 -8 66 -8h26q141 0 180 68q16 27 52 135q0 2 63 186h-702q-80 0 -107 14q-47 23 -47 82q0 43 29 115l227 643q20 59 43 94q68 106 205 107h1116q92 0 119 -47q10 -20 10 -49 q0 -43 -31 -125l-409 -1162q-20 -49 -58 -90q-65 -67 -173 -67h-3h-1059q-121 2 -157 39q-27 27 -27 63v14zM537 379q0 -68 67 -90q29 -12 80 -13h207l225 627q53 102 133 133q61 23 170 23l27 76h-461q-158 0 -231 -123q-20 -41 -45 -113q-152 -430 -162 -459 q-10 -41 -10 -61z" />
<glyph unicode="h" horiz-adv-x="1785" d="M0 0l584 1638h391q104 0 127 -55q10 -18 10 -45q0 -45 -29 -123l-65 -186h760q92 0 118 -47q10 -20 11 -49q0 -31 -15 -78l-376 -1055h-549q338 940 346 967q12 45 12 63v4q0 70 -78 92q-27 8 -59 9h-469l-27 -76h51q66 0 113 -19q51 -25 51 -84v-6q0 -41 -24 -104 l-299 -846h-584z" />
<glyph unicode="i" horiz-adv-x="915" d="M0 98v6q0 43 29 117l333 959h283l29 80h-49q-113 0 -154 43q-23 27 -22 67q0 49 30 141l43 127h379q104 0 127 -55q10 -18 10 -45q0 -45 -28 -123l-494 -1415h-352q-70 0 -94 8q-70 20 -70 90z" />
<glyph unicode="j" horiz-adv-x="974" d="M-723 -301l43 96h442q141 0 181 68q16 27 51 135l418 1182h282l29 80h-49q-113 0 -154 43q-23 27 -22 67q0 49 30 141h-2l45 127h379q104 0 127 -55q10 -18 10 -45q0 -45 -28 -123l-549 -1558q-20 -49 -57 -90q-66 -68 -177 -68h-999z" />
<glyph unicode="k" horiz-adv-x="1978" d="M0 96v8q0 45 39 144l487 1390h441q104 0 127 -55q10 -18 10 -45q0 -45 -29 -123l-256 -706h484l28 75h-110q-113 0 -131 35q-5 10 -6 22q0 29 32 66l397 529h639l-620 -793l299 -643h-447q-102 0 -153 42t-88 146l-172 422h-459l-31 -80h51q113 0 154 -43q23 -27 23 -67 q0 -51 -35 -148l-88 -272h-453q-94 0 -123 51q-10 20 -10 45z" />
<glyph unicode="l" horiz-adv-x="905" d="M0 98v6q0 43 29 117l495 1417h379q104 0 127 -55q10 -18 10 -45q0 -45 -28 -123l-496 -1415h-352q-70 0 -94 8q-70 20 -70 90z" />
<glyph unicode="m" horiz-adv-x="2693" d="M0 0l379 1063q14 37 33 65q68 100 202 101h2093q94 0 119 -47q12 -20 13 -47q0 -31 -17 -80l-375 -1055h-549q336 942 345 969q12 43 12 61v6q0 70 -78 92q-27 6 -59 7h-465q-2 -2 -4 -5l-25 -71h51q66 0 113 -19q49 -25 49 -84v-6q0 -39 -25 -104l-299 -846h-546 q338 940 346 967q12 45 12 63v4q0 70 -78 92q-27 8 -59 9h-469l-27 -76h51q66 0 113 -19q51 -25 51 -84v-6q0 -41 -24 -104l-299 -846h-584z" />
<glyph unicode="n" horiz-adv-x="1765" d="M0 0l379 1063q14 37 33 65q67 101 202 101h1164q92 0 118 -47q10 -20 11 -49q0 -31 -15 -78l-376 -1055h-549q338 940 346 967q12 45 12 63v4q0 70 -78 92q-27 8 -59 9h-469l-27 -76h51q66 0 113 -19q51 -25 51 -84v-6q0 -41 -24 -104l-299 -846h-584z" />
<glyph unicode="o" horiz-adv-x="1677" d="M0 92v4q0 45 33 125l291 819q20 51 43 86q43 66 112 88q41 15 90 15h1112q94 0 119 -49q10 -20 10 -43v-9q0 -41 -34 -129l-297 -829q-14 -39 -37 -74q-70 -96 -197 -96h-1118q-127 0 -127 92zM573 102h189q164 0 235 127q25 51 62 158l192 537q27 74 27 108 q0 82 -100 98q-20 4 -62 5h-442l-27 -76h49q78 0 123 -25q43 -25 43 -80q0 -45 -14 -77z" />
<glyph unicode="p" horiz-adv-x="1716" d="M-115 -311l480 1351q18 51 41 86q43 66 110 88q41 14 90 15h1112q94 0 121 -49q10 -20 10 -43v-9q0 -41 -34 -129l-297 -829q-14 -39 -39 -74q-68 -96 -197 -96h-704l-107 -311h-586zM612 102h189q164 0 235 127q25 51 62 158l192 537q27 74 27 108q0 82 -100 98 q-20 4 -64 5h-440l-27 -76h49q76 0 123 -25q41 -25 41 -80q0 -45 -14 -77z" />
<glyph unicode="q" horiz-adv-x="1638" d="M0 96q0 35 14 74l287 829q27 80 57 129l4 9q16 23 41 43q61 49 156 49h1112q49 0 80 -15q49 -22 49 -83q0 -34 -20 -91l-475 -1353h-394q-104 0 -127 55q-10 18 -10 45q0 45 29 123l31 90h-705q-129 0 -129 96zM537 229q-2 -13 -2 -24q0 -103 147 -103h188l35 101 l240 674q8 33 41 77q39 55 96 80q66 25 141 25h50l26 76h-440q-43 0 -68 -5q-111 -16 -170 -98q-25 -35 -49 -108l-186 -537q-37 -106 -49 -158z" />
<glyph unicode="r" horiz-adv-x="1685" d="M0 0l346 981q27 76 41 106q10 23 27 48q39 51 80 69q46 25 118 25h1059q127 0 160 -41q23 -27 22 -62v-14q0 -33 -28 -115l-47 -143h-537h-2q41 121 47 141q4 20 4 37v2q0 70 -73 92q-27 8 -72 9h-428l-27 -76h47q80 0 125 -23q43 -25 43 -82q0 -47 -20 -98l-303 -856 h-580h-2z" />
<glyph unicode="s" horiz-adv-x="1552" d="M0 102v15q0 35 29 119l49 139h536q-41 -121 -45 -139q-6 -25 -6 -41q0 -51 41 -76q37 -25 98 -25h25q150 0 184 74q12 27 103 301q6 20 6 37q0 27 -16 46q-24 28 -117 28h-13h-450q-176 0 -215 55q-12 18 -12 43q0 27 12 59l123 328q12 35 30 61q43 66 113 91 q41 12 78 12h979q125 0 143 -6q45 -8 68 -27q33 -27 33 -78q0 -43 -27 -121l-55 -143h-477l26 78q27 74 27 108q0 82 -99 99q-18 4 -61 4h-426l-27 -76h48q74 0 118 -25q41 -25 41 -79q0 -45 -14 -78l-23 -60q-11 -32 -11 -56q0 -27 13 -45q24 -33 112 -32h11h447 q170 0 207 -61q10 -16 10 -35v-4q0 -23 -23 -84l-118 -348q-12 -31 -35 -64q-68 -96 -199 -96h-1034q-115 2 -150 18q-16 6 -34 25q-23 27 -23 59z" />
<glyph unicode="t" horiz-adv-x="1024" d="M0 96v8q0 45 39 144l434 1222q18 41 45 78q70 90 199 90h379l-138 -409h365l-35 -99h-639l-28 -79h49q113 0 153 -43q23 -27 23 -68q0 -51 -39 -147l-279 -793h-397q-92 0 -121 51q-10 23 -10 45z" />
<glyph unicode="u" horiz-adv-x="1775" d="M0 96q0 31 14 78l377 1055h549q-338 -940 -346 -967q-12 -45 -12 -63v-4q0 -70 77 -93q27 -8 60 -8h469l26 76h-51q-66 0 -112 18q-51 25 -52 84v7q0 41 25 104l299 846h584l-441 -1229h-1337q-92 0 -119 47q-10 20 -10 49z" />
<glyph unicode="v" horiz-adv-x="1323" d="M150 0v1229h561v-778q-6 -102 -13 -142q-6 -31 -14 -47q-23 -49 -68 -69q-18 -8 -41 -15q-45 -8 -98 -8l-26 -76h266l647 1135h156l-705 -1229h-665z" />
<glyph unicode="w" horiz-adv-x="2445" d="M150 0v1229h561v-778q-6 -102 -13 -142q-6 -31 -14 -47q-23 -49 -68 -69q-18 -8 -41 -15q-45 -8 -98 -8l-26 -76h184l647 1135h576v-778q-6 -102 -13 -142q-6 -31 -14 -47q-23 -49 -68 -69q-18 -8 -41 -15q-45 -8 -98 -8l-27 -76h185l647 1135h156l-705 -1229h-588v975 l-559 -975h-583z" />
<glyph unicode="x" horiz-adv-x="1435" d="M-123 0l559 582l-137 647h571q100 -463 101 -467l454 467h189l-608 -637h-271l-26 -76h88q127 0 188 -51q29 -29 35 -39q29 -41 43 -113l70 -313h-572l-90 418l-399 -418h-195z" />
<glyph unicode="y" horiz-adv-x="1196" d="M-467 -297l43 96h358q45 0 88.5 13.5t65 76t21.5 154.5v1190h565v-778q-6 -102 -12 -142q-6 -31 -15 -47q-23 -49 -67 -69q-18 -8 -41 -15q-45 -8 -99 -8l-26 -76h266l647 1135h156l-705 -1229h-2q-96 -176 -225 -237q-129 -63 -410 -64h-608z" />
<glyph unicode="z" horiz-adv-x="1228" d="M-61 0l583 852q96 137 183 172q66 29 149 29h14l31 80h-661l32 98h1078l-523 -852q-84 -137 -170 -172q-66 -29 -149 -29h-27l-30 -80h702l-33 -98h-1179z" />
<glyph unicode="{" horiz-adv-x="1458" d="M0 109v14q0 37 31 121l133 424q33 111 -37 129q-31 8 -72 16q162 47 250 260l141 393q49 111 148 150q63 25 154 24h825l-35 -100h-305q-217 0 -266 -151l-148 -410q-61 -168 -252 -166q127 -10 152 -49q18 -25 18 -57q0 -39 -74.5 -251t-70.5 -247v-4q0 -72 82 -96 q31 -8 78 -9h368l-35 -100h-895q-139 0 -172 53q-18 25 -18 56z" />
<glyph unicode="|" horiz-adv-x="1120" d="M10 -463q0 43 29 117l930 2636h96q104 0 127 -56q10 -18 10 -45q0 -45 -28 -123l-930 -2633h-70q-70 0 -94 8q-70 20 -70 90v6z" />
<glyph unicode="}" horiz-adv-x="1439" d="M0 0l35 100h305q217 0 266 152l148 410q61 168 252 165q-127 10 -152 50q-18 25 -18 57q0 39 74.5 251t70.5 247v4q0 72 -82 96q-31 8 -78 8h-368l34 100h895q139 0 172 -53q18 -25 19 -55v-14q0 -37 -31 -121l-133 -424q-33 -111 37 -129q31 -8 72 -17 q-162 -47 -250 -260l-142 -393q-49 -111 -147 -149q-63 -25 -154 -25h-825z" />
<glyph unicode="~" horiz-adv-x="1232" d="M0 1491q84 143 168 193.5t169 51.5t130 -7q82 -16 217 -104.5t188.5 -106t83.5 -21.5q92 -18 138.5 7.5t69 48t36.5 49.5l111 -21q-45 -96 -130 -170t-177.5 -81t-153.5 5q-82 14 -220 97.5t-187.5 108t-96.5 32.5q-59 12 -93 0t-62.5 -30.5t-67.5 -74.5z" />
<glyph unicode="&#xa1;" horiz-adv-x="819" d="M-115 -391q0 43 29 117l334 958h282l29 80h-49q-113 0 -154 43q-23 27 -22 67q0 49 31 142l43 127h419q104 0 127 -56q10 -18 11 -45q0 -45 -29 -122l-494 -1416h-393q-70 0 -94 9q-70 20 -70 90v6z" />
<glyph unicode="&#xa2;" horiz-adv-x="1656" d="M0 88v12q0 41 35 127l301 832q18 45 43 78q68 92 194 92h463l101 268h100l-98 -268h495q125 0 160 -43q23 -25 23 -68t-25 -119q-51 -145 -53 -145h-537q41 125 43 135q6 23 6 43v2q0 74 -82 94q-25 6 -71 7h-418l-29 -76h49q68 0 115 -19q51 -25 51 -82q0 -55 -28 -131 l-258 -733h151q166 0 238 135q10 25 57 146h537l-80 -211q-49 -104 -144 -141q-55 -23 -147 -23h-492l-94 -266h-112l96 266h-465q-90 0 -117 49q-8 20 -8 39z" />
<glyph unicode="&#xa3;" horiz-adv-x="2031" d="M-240 0l35 98h332l229 635h389q113 0 154 -43q23 -27 23 -67q0 -51 -39 -148l-127 -377h913l-35 -98h-1874zM23 813l34 98h363l198 559q16 41 46 78q70 90 198 90h1116q139 0 172 -51q18 -25 19 -57v-12q0 -37 -31 -123l-49 -150h-567q45 127 51 158q2 18 2 27v6 q0 72 -80 96q-31 8 -80 8h-442l-27 -80h55q84 0 132 -28q39 -27 38 -82q0 -47 -18 -90l-119 -349h713l-35 -98h-1689z" />
<glyph unicode="&#xa4;" horiz-adv-x="1204" d="M2 154q0 10 4 20q4 14 25 39l80 100q6 8 10 15q-6 10 -12 22q-66 125 -66 260v8q0 131 63 256q18 35 50 76q16 23 47 56q12 10 22 20l-12 8l-100 80q-25 20 -29 27q-4 8 -6 16q-2 12 10 27q10 14 45 33q39 25 72 20q12 0 20 -4q14 -4 35 -21l107 -86q4 -2 6 -6 q23 10 47 19q86 31 176 30q90 0 176 -30q63 -23 105 -45q20 -12 51 -37q20 -12 59 -49q4 10 14 22l84 107q20 25 31 26q18 8 35 -6q14 -10 31 -41q29 -39 24 -74q0 -10 -4 -20q-4 -14 -24 -39l-80 -100q-6 -8 -11 -13q63 -123 64 -252v-8q0 -135 -68 -260q-20 -39 -55 -82 q-8 -10 -16 -18q14 -6 37 -23l98 -80q25 -18 29 -26t6 -17q2 -12 -8 -26q-12 -14 -46 -33q-41 -25 -73 -20q-10 0 -21 4q-14 4 -35 20l-104 86l-8 8q-133 -82 -291 -82q-164 0 -301 89q-23 16 -51 36q-9 7 -17 15v-2q-4 -12 -20 -33l-84 -107q-20 -25 -33 -26q-16 -8 -35 6 q-12 10 -28 39q-27 41 -25 76zM172 614q0 -131 74 -243q14 -20 43 -49q35 -35 55 -52q115 -80 252 -80t252 80q20 16 55 52q29 29 43 49q74 113 74 243q0 84 -33 166q-70 158 -229 228q-80 30 -162 30t-162 -30q-160 -70 -229 -228q-33 -82 -33 -166z" />
<glyph unicode="&#xa5;" horiz-adv-x="1642" d="M-86 0l43 96h358q45 0 88 13.5t66 76.5q14 48 18 111h-368q16 51 33 98h1574l-34 -98h-537q-96 -172 -223 -234q-129 -63 -410 -63h-608zM190 471q16 51 33 98h266v1069h566v-886q-6 -102 -13 -142q-6 -31 -14 -47q-23 -49 -67 -69q-18 -8 -41 -15q-43 -6 -250 -8h-480z M1102 471l606 1167h156l-564 -1069h494l-35 -98h-657z" />
<glyph unicode="&#xa7;" horiz-adv-x="1720" d="M-287 -662q0 35 29 119l49 140h537q-41 -121 -45 -140q-6 -25 -7 -41q0 -51 41 -75q37 -25 99 -25h24q147 0 183 74q12 27 174 497q16 53 -9.5 82t-130.5 29h-448q-176 0 -215 53q-12 18 -12 43q0 27 22 90l469 1291q14 35 33 61q43 66 115 90q43 12 81 12h1008 q156 0 174 -6q47 -8 70 -26q35 -27 35 -78q0 -43 -29 -121l-49 -145h-527l29 79q27 74 27 109q0 82 -101 98q-20 4 -63 4h-440l-27 -75h49q76 0 123 -25q41 -25 41 -80q0 -45 -14 -78l-82 -231h2q-6 -20 -15 -43q-23 -66 2 -100.5t123 -32.5h471q170 0 207 -62 q10 -16 10 -34v-5q0 -20 -22 -81l-477 -1323q-12 -31 -35 -64q-68 -96 -199 -96h-1073q-115 2 -149 18q-16 6 -35 25q-23 27 -23 59v14zM522 698h49q76 0 123 -24q41 -25 41 -80q0 -45 -14 -78l-82 -231h2q-6 -20 -14 -43q-23 -66 1.5 -101t123.5 -32h131l200 557 q16 53 -8 82q-20 20 -80 26h-446z" />
<glyph unicode="&#xa8;" horiz-adv-x="1044" d="M0 1405q0 29 23 82q25 82 73 115q12 8 33 16q25 8 78 8h219q53 0 68 -4q14 -6 24 -16q16 -14 17 -43q0 -33 -25 -95q-27 -76 -76 -106q-16 -10 -33 -14q-22 -11 -67 -11h-234q-55 0 -71 15q-29 14 -29 53zM610 1403q0 31 23 84q25 82 76 112q12 10 32 17q23 10 78 10h219 q51 0 66 -6q14 -4 24 -14q16 -14 17 -45q0 -31 -25 -93q-27 -78 -76 -106q-14 -10 -32 -16q-23 -9 -68 -9h-233q-53 0 -70 13q-31 16 -31 53z" />
<glyph unicode="&#xa9;" horiz-adv-x="1304" d="M205 1358v8q0 131 65 256q16 35 47 76q18 23 50 55q41 39 59 51q31 25 53 37q39 23 103 45q88 31 178 31q88 0 176 -31q63 -23 102 -45q23 -12 54 -37q18 -12 59 -51q31 -33 49 -55q31 -41 47 -76q66 -125 66 -256v-8q0 -135 -68 -260q-20 -39 -53 -82q-33 -39 -82 -82 q-27 -20 -49 -37q-139 -88 -301 -88q-164 0 -303 88q-23 16 -49 37q-49 43 -82 82q-33 43 -54 82q-68 125 -67 260zM307 1362q0 -139 78 -260q16 -20 47 -53q37 -37 57 -54q123 -86 271 -86q145 0 268 86q20 16 57 54q31 33 48 53q78 121 77 260q0 90 -34 176 q-74 168 -246 242q-84 35 -170 35q-88 0 -172 -35q-172 -74 -246 -242q-35 -86 -35 -176zM418 1118v2q0 14 12 49l148 412q6 14 16 27q22 30 65 30h379q47 0 58 -16q6 -8 6 -20v-5q0 -12 -10 -41l-17 -51h-192q16 43 18 54v12q0 25 -27 33q-10 2 -26 2h-150l-10 -27h19 q29 0 45 -10q12 -8 12 -27q0 -16 -6 -31l-135 -393h75q35 0 56 15q25 12 37 43q6 16 16 43h176q-23 -70 -25 -74q-18 -39 -51 -51q-20 -8 -51 -9h-393q-33 0 -41 17q-4 8 -4 16z" />
<glyph unicode="&#xab;" horiz-adv-x="1435" d="M0 631l68 196l870 320l-78 -215l-596 -219l443 -215l-64 -179zM600 631l68 196l870 320l-78 -215l-596 -219l443 -215l-64 -179z" />
<glyph unicode="&#xad;" horiz-adv-x="866" d="M102 555l35 109h764l-35 -109h-764z" />
<glyph unicode="&#xae;" horiz-adv-x="1312" d="M203 1358v8q0 131 65 256q16 35 47 76q18 23 50 55q41 39 59 51q31 25 53 37q39 23 103 45q88 31 178 31q88 0 176 -31q63 -23 102 -45q23 -12 54 -37q18 -12 59 -51q31 -33 49 -55q31 -41 47 -76q66 -125 66 -256v-8q0 -135 -68 -260q-20 -39 -53 -82q-33 -39 -82 -82 q-27 -20 -49 -37q-139 -88 -301 -88q-164 0 -303 88q-23 16 -49 37q-49 43 -82 82q-33 43 -54 82q-68 125 -67 260zM305 1362q0 -139 78 -260q16 -20 47 -53q37 -37 57 -54q123 -86 271 -86q145 0 268 86q20 16 57 54q31 33 47 53q78 121 78 260q0 90 -34 176 q-74 168 -246 242q-84 35 -170 35q-88 0 -172 -35q-172 -74 -246 -242q-35 -86 -35 -176zM414 1087l174 486q6 18 14 29q14 23 37 30q12 4 29 4h387q33 0 41 -16q4 -6 4 -14v-2q0 -14 -13 -43l-100 -279q-4 -14 -12 -25q-20 -29 -57 -32q25 -2 32 -17q4 -6 4 -14v-2 q0 -14 -12 -43l-20 -62h-183l25 68q8 25 8 37q0 27 -33 33h-80l-49 -138h-196zM670 1262h63q55 0 80 41q8 18 21 53l63 180q8 25 8 37q0 27 -33 33q-6 2 -20 2h-147l-11 -27h17q27 0 41 -8t14 -27q0 -14 -4 -26z" />
<glyph unicode="&#xb0;" horiz-adv-x="542" d="M0 1634q0 111 79.5 193t192.5 82t193 -80t80 -195q0 -111 -80 -188.5t-193 -77.5q-115 0 -193.5 77t-78.5 189zM127 1634q0 -61 41 -102t104 -41q61 0 102.5 41t41.5 102q0 63 -41 104.5t-103 41.5q-61 0 -103 -42.5t-42 -103.5z" />
<glyph unicode="&#xb1;" horiz-adv-x="1435" d="M-82 0l35 98h1337l-35 -98h-1337zM0 770l35 98h436l201 568h420q104 0 127 -56q10 -18 10 -45q0 -45 -29 -123l-121 -344h437l-35 -108h-725l-27 -80h55q84 0 131 -29q39 -27 39 -82q0 -47 -18 -90l-94 -274h-391q-70 0 -95 8q-70 20 -69 90v6q0 43 28 117l121 344h-436z " />
<glyph unicode="&#xb2;" horiz-adv-x="735" d="M145 1061l45 123q10 20 52 41l221 137q78 45 96 96q41 123 41 127q0 20 -49 21h-6q-14 0 -29 -2q-29 -8 -45 -33l-8 -12q-2 -2 -21 -50v-2h-188l18 52q8 27 19 43q14 18 33 26q12 8 30 10q8 2 64 2h356q12 0 25 -4q20 -8 18 -32q0 -8 -4 -21l-68 -197h-2q-2 -10 -6 -18 q-12 -29 -36.5 -52.5t-79.5 -51.5l-236 -144h-88l-8 -24h450l-12 -35h-582z" />
<glyph unicode="&#xb4;" horiz-adv-x="819" d="M0 1354q446 182 567 302t252 81q117 -33 79 -160t-328.5 -210t-569.5 -13z" />
<glyph unicode="&#xb5;" horiz-adv-x="1720" d="M-96 -197q0 43 28 117l459 1309h549q-338 -940 -346 -967q-12 -45 -12 -63v-4q0 -70 77 -93q27 -8 60 -8h469l26 76h-51q-66 0 -112 18q-51 25 -52 84v7q0 41 25 104l299 846h584l-441 -1229h-940l-106 -301h-352q-70 0 -95 8q-70 20 -69 90v6z" />
<glyph unicode="&#xb6;" horiz-adv-x="1224" d="M-182 506q0 35 14 74l291 829q27 88 55 129l6 8q16 23 41 43q61 49 156 49h709l-5 -2h113q49 0 80 -14q51 -23 47 -88q-4 -35 -22 -86l-543 -1448h-340l557 1540h-117l-547 -1540h-317l145 410h-194q-129 0 -129 96z" />
<glyph unicode="&#xb7;" horiz-adv-x="645" d="M0 498q0 47 37 139q39 113 113 158q23 14 49 22q32 12 100 12h346q80 0 105 -18q43 -23 43 -80q0 -43 -33 -123q-37 -121 -111 -168q-18 -14 -49 -24q-35 -14 -115 -15h-325q-78 0 -99 9q-20 8 -36 22q-25 23 -25 66z" />
<glyph unicode="&#xb8;" horiz-adv-x="819" d="M0 -451h49q76 0 123 25q43 25 43 80q0 45 -14 80q-27 73 -27 108q0 82 100 99q20 4 62 4h442l27 -76h-49q-76 0 -123 -25q-43 -25 -43 -80q0 -45 14 -79q27 -74 27 -109q0 -82 -101 -98q-20 -4 -61 -4h-442z" />
<glyph unicode="&#xbb;" horiz-adv-x="1435" d="M0 319l78 216l596 219l-443 215l64 178l643 -311l-68 -197zM600 319l78 216l596 219l-443 215l64 178l643 -311l-68 -197z" />
<glyph unicode="&#xbf;" horiz-adv-x="1228" d="M-127 -395q0 45 29 123l155 446q23 63 31 76q51 111 150 149q61 25 151 25h227l91 260h282l29 80h-49q-113 0 -154 43q-23 27 -22 67q0 49 30 142l43 127h420q104 0 127 -56q10 -18 10 -45q0 -45 -28 -122l-207 -596h-334q-104 0 -164 -39q-72 -39 -106 -129 q-16 -41 -39 -103q-2 -8 -6 -14q0 -4 -2 -8q-23 -63 -50 -146q-12 -43 -45 -90q-39 -55 -96 -82q-68 -29 -151 -28h-56l-28 -74h1304l-55 -107h-1350q-104 0 -127 56q-10 18 -10 45z" />
<glyph unicode="&#xc0;" d="M-145 0l968 1638h475q127 0 166 -86q18 -39 19 -118v-1434h-418q-82 0 -115 18q-90 39 -90 168v246h-563l-240 -432h-202zM395 590h748v2l28 76q-133 0 -170 10q-25 6 -43 14q-55 25 -75 80q-20 45 -21 133q-2 88 -2 303v158l-8 -8zM585 2036q-38 127 81 159 q129 39 250 -81t567 -302q-276 -70 -568 13.5t-330 210.5z" />
<glyph unicode="&#xc1;" d="M-145 2l968 1638h475q127 0 166 -86q18 -39 19 -118v-1434h-418q-82 0 -115 18q-90 39 -90 168v246h-563l-240 -432h-202zM395 592h748v2l28 76q-133 0 -170 10q-25 6 -43 14q-55 25 -75 80q-20 45 -21 133q-2 88 -2 303v158l-8 -8zM575 1815q446 182 567.5 302t250.5 81 q119 -33 81 -160t-330 -210t-569 -13z" />
<glyph unicode="&#xc2;" d="M-145 0l968 1638h475q127 0 166 -86q18 -39 19 -118v-1434h-418q-82 0 -115 18q-90 39 -90 168v246h-563l-240 -432h-202zM395 590h748v2l28 76q-133 0 -170 10q-25 6 -43 14q-55 25 -75 80q-20 45 -21 133q-2 88 -2 303v158l-8 -8zM430 1815q420 160 547 266 q96 80 180 78q86 2 150 -78q84 -106 442 -269q-256 -59 -496 13q-92 29 -149 61q-72 -33 -176 -61q-268 -72 -498 -10z" />
<glyph unicode="&#xc3;" d="M-152 0l969 1638h475q127 0 166 -86q18 -39 19 -118v-1434h-418q-82 0 -115 18q-90 39 -90 168v246h-563l-240 -432h-203zM389 590h748v2l28 76q-133 0 -170 10q-25 6 -43 14q-55 25 -75 80q-20 45 -21 133q-2 88 -2 303v158l-8 -8zM475 1884q84 143 169 193.5t169 51.5 t131 -7q80 -16 215 -104.5t188.5 -106t84.5 -21.5q92 -18 139 7.5t68.5 48t37.5 49.5l111 -21q-47 -96 -131 -169.5t-177.5 -81t-154.5 5.5q-82 14 -219 97t-187.5 107.5t-95.5 32.5q-61 12 -95 0t-61.5 -30.5t-68.5 -73.5z" />
<glyph unicode="&#xc4;" d="M-152 0l969 1638h475q127 0 166 -86q18 -39 19 -118v-1434h-418q-82 0 -115 18q-90 39 -90 168v246h-563l-240 -432h-203zM389 590h748v2l28 76q-133 0 -170 10q-25 6 -43 14q-55 25 -75 80q-20 45 -21 133q-2 88 -2 303v158l-8 -8zM573 1843q0 29 23 82q25 82 74 115 q12 8 32 16q25 8 78 8h219q53 0 68 -4q14 -6 25 -16q16 -14 16 -43q0 -33 -25 -94q-27 -76 -75 -107q-16 -10 -33 -14q-23 -10 -68 -10h-233q-55 0 -72 14q-29 14 -29 53zM1184 1841q0 31 22 84q25 82 76 113q12 10 33 16q23 10 78 10h219q51 0 65 -6q14 -4 25 -14 q16 -14 16 -45t-24 -92q-27 -78 -76 -107q-14 -10 -33 -16q-22 -8 -67 -8h-234q-53 0 -70 12q-31 16 -30 53z" />
<glyph unicode="&#xc5;" d="M-145 0l968 1638h475q127 0 166 -86q18 -39 19 -118v-1434h-418q-82 0 -115 18q-90 39 -90 168v246h-563l-240 -432h-202zM395 590h748v2l28 76q-133 0 -170 10q-25 6 -43 14q-55 25 -75 80q-20 45 -21 133q-2 88 -2 303v158l-8 -8zM897 2032q0 113 79.5 192.5 t192.5 79.5t193 -80t80 -192q0 -113 -80 -191t-193 -78t-192.5 78t-79.5 191zM1026 2032q0 -61 41 -102.5t102 -41.5q63 0 104.5 41t41.5 103q0 63 -41 104t-105 41q-61 0 -102 -41t-41 -104z" />
<glyph unicode="&#xc6;" horiz-adv-x="2760" d="M-143 0l968 1638h475q105 0 150 -57q66 57 168 57h1116q139 0 172 -51q18 -25 19 -57v-12q0 -37 -31 -123l-49 -150h-568q45 127 52 158q2 18 2 27v6q0 72 -80 96q-31 8 -80 8h-442l-27 -80h55q84 0 131 -28q39 -27 39 -82q0 -47 -18 -90l-119 -349h754l-35 -98h-1028 l-29 -80h49q113 0 154 -43q23 -27 22 -67q0 -51 -32 -148l-138 -375h226q104 0 163 39q72 39 107 129q20 49 47 125h524q-68 -205 -75 -219q-51 -111 -150 -149q-61 -25 -151 -25h-1166q-55 4 -80 18q-90 39 -90 168v246h-563l-240 -432h-202zM397 590h748v2l29 76 q-133 0 -170 10q-25 6 -43 14q-55 25 -76 80q-20 45 -21 133q-2 88 -2 303v158l-8 -8z" />
<glyph unicode="&#xc7;" horiz-adv-x="1863" d="M0 96v8q0 45 39 144l434 1222q16 41 45 78q70 90 199 90h1116q139 0 172 -51q18 -25 18 -57v-12q0 -37 -30 -123l-49 -150h-568q45 127 51 158l3 27v6q0 72 -80 96q-31 8 -80 8h-443l-26 -80h55q84 0 131 -28q39 -27 39 -82q0 -47 -18 -90l-402 -1160h225q104 0 164 39 q72 39 107 129q20 49 47 125h524q-68 -205 -76 -219q-51 -111 -149 -149q-61 -25 -152 -25h-1165q-92 0 -121 51q-10 23 -10 45zM293 -451h49q76 0 123 25q43 25 43 80q0 45 -14 80q-27 73 -27 108q0 82 100 99q20 4 62 4h442l27 -76h-49q-76 0 -123 -25q-43 -25 -43 -80 q0 -45 14 -79q27 -74 27 -109q0 -82 -101 -98q-20 -4 -61 -4h-443z" />
<glyph unicode="&#xc8;" horiz-adv-x="1884" d="M0 96v8q0 45 39 144l434 1222q16 41 45 78q70 90 199 90h1116q139 0 172 -51q18 -25 18 -57v-12q0 -37 -30 -123l-49 -150h-568q45 127 51 158l3 27v6q0 72 -80 96q-31 8 -80 8h-443l-26 -80h55q84 0 131 -28q39 -27 39 -82q0 -47 -18 -90l-119 -349h753l-34 -98h-1028 l-29 -80h49q113 0 154 -43q23 -27 22 -67q0 -51 -33 -148l-137 -375h225q104 0 164 39q72 39 107 129q20 49 47 125h524q-68 -205 -76 -219q-51 -111 -149 -149q-61 -25 -152 -25h-1165q-92 0 -121 51q-10 23 -10 45zM886 2011q-38 127 81 160q129 39 250 -81t567 -302 q-276 -70 -568 13t-330 210z" />
<glyph unicode="&#xc9;" horiz-adv-x="1863" d="M0 96v8q0 45 39 144l434 1222q16 41 45 78q70 90 199 90h1116q139 0 172 -51q18 -25 18 -57v-12q0 -37 -30 -123l-49 -150h-568q45 127 51 158l3 27v6q0 72 -80 96q-31 8 -80 8h-443l-26 -80h55q84 0 131 -28q39 -27 39 -82q0 -47 -18 -90l-119 -349h753l-34 -98h-1028 l-29 -80h49q113 0 154 -43q23 -27 22 -67q0 -51 -33 -148l-137 -375h225q104 0 164 39q72 39 107 129q20 49 47 125h524q-68 -205 -76 -219q-51 -111 -149 -149q-61 -25 -152 -25h-1165q-92 0 -121 51q-10 23 -10 45zM877 1788q446 182 567 302t250 81q119 -33 81 -160 t-330 -210t-568 -13z" />
<glyph unicode="&#xca;" horiz-adv-x="1894" d="M0 96v8q0 45 39 144l434 1222q16 41 45 78q70 90 199 90h1116q139 0 172 -51q18 -25 18 -57v-12q0 -37 -30 -123l-49 -150h-568q45 127 51 158l3 27v6q0 72 -80 96q-31 8 -80 8h-443l-26 -80h55q84 0 131 -28q39 -27 39 -82q0 -47 -18 -90l-119 -349h753l-34 -98h-1028 l-29 -80h49q113 0 154 -43q23 -27 22 -67q0 -51 -33 -148l-137 -375h225q104 0 164 39q72 39 107 129q20 49 47 125h524q-68 -205 -76 -219q-51 -111 -149 -149q-61 -25 -152 -25h-1165q-92 0 -121 51q-10 23 -10 45zM657 1815q420 160 547 266q96 80 180 78q86 2 150 -78 q84 -106 442 -269q-256 -59 -495 13q-92 29 -150 61q-72 -33 -176 -61q-268 -72 -498 -10z" />
<glyph unicode="&#xcb;" horiz-adv-x="1863" d="M0 96v8q0 45 39 144l434 1222q16 41 45 78q70 90 199 90h1116q139 0 172 -51q18 -25 18 -57v-12q0 -37 -30 -123l-49 -150h-568q45 127 51 158l3 27v6q0 72 -80 96q-31 8 -80 8h-443l-26 -80h55q84 0 131 -28q39 -27 39 -82q0 -47 -18 -90l-119 -349h753l-34 -98h-1028 l-29 -80h49q113 0 154 -43q23 -27 22 -67q0 -51 -33 -148l-137 -375h225q104 0 164 39q72 39 107 129q20 49 47 125h524q-68 -205 -76 -219q-51 -111 -149 -149q-61 -25 -152 -25h-1165q-92 0 -121 51q-10 23 -10 45zM764 1843q0 29 22 82q25 82 74 115q12 8 33 16 q25 8 78 8h219q53 0 67 -4q14 -6 25 -16q16 -14 16 -43q0 -33 -24 -94q-27 -76 -76 -107q-16 -10 -33 -14q-22 -10 -67 -10h-234q-55 0 -71 14q-29 14 -29 53zM1374 1841q0 31 23 84q25 82 76 113q12 10 32 16q23 10 78 10h219q51 0 66 -6q14 -4 24 -14q16 -14 17 -45 q0 -31 -25 -92q-27 -78 -76 -107q-14 -10 -32 -16q-23 -8 -68 -8h-233q-53 0 -70 12q-31 16 -31 53z" />
<glyph unicode="&#xcc;" horiz-adv-x="1026" d="M0 98v6q0 43 29 117l495 1417h420q104 0 127 -55q10 -18 10 -45q0 -45 -28 -123l-496 -1415h-393q-70 0 -94 8q-70 20 -70 90zM462 2036q-38 127 81 159q129 39 250 -81t567 -302q-276 -70 -568 13.5t-330 210.5z" />
<glyph unicode="&#xcd;" horiz-adv-x="1026" d="M0 98v6q0 43 29 117l495 1417h420q104 0 127 -55q10 -18 10 -45q0 -45 -28 -123l-496 -1415h-393q-70 0 -94 8q-70 20 -70 90zM420 1812q446 182 567 302t250 81q119 -33 81 -159.5t-330 -209.5t-568 -14z" />
<glyph unicode="&#xce;" horiz-adv-x="1232" d="M0 98v6q0 43 29 117l495 1417h420q104 0 127 -55q10 -18 10 -45q0 -45 -28 -123l-496 -1415h-393q-70 0 -94 8q-70 20 -70 90zM217 1815q420 160 547 266q96 80 180 78q86 2 150 -78q84 -106 442 -269q-256 -59 -496 13q-92 29 -149 61q-72 -33 -176 -61 q-268 -72 -498 -10z" />
<glyph unicode="&#xcf;" horiz-adv-x="1232" d="M0 98v6q0 43 29 117l495 1417h420q104 0 127 -55q10 -18 10 -45q0 -45 -28 -123l-496 -1415h-393q-70 0 -94 8q-70 20 -70 90zM315 1843q0 29 23 82q25 82 74 115q12 8 32 16q25 8 78 8h219q53 0 68 -4q14 -6 25 -16q16 -14 16 -43q0 -33 -25 -94q-27 -76 -75 -107 q-16 -10 -33 -14q-23 -10 -68 -10h-233q-55 0 -72 14q-29 14 -29 53zM926 1841q0 31 22 84q25 82 76 113q12 10 33 16q23 10 78 10h219q51 0 65 -6q14 -4 25 -14q16 -14 16 -45t-24 -92q-27 -78 -76 -107q-14 -10 -33 -16q-22 -8 -67 -8h-234q-53 0 -70 12q-31 16 -30 53z " />
<glyph unicode="&#xd0;" horiz-adv-x="1845" d="M-14 770l32 98h291l273 770h1294q94 0 119 -47q10 -23 10 -43v-10q0 -41 -35 -129l-442 -1239q-14 -37 -39 -74q-68 -96 -195 -96h-1294l272 770h-286zM623 102h188q164 0 236 127q25 51 61 160l338 944q27 74 27 109q0 82 -101 98q-20 4 -61 4h-443l-26 -76h49 q76 0 123 -24q43 -25 43 -80q0 -45 -15 -80l-147 -416h264l-35 -98h-264z" />
<glyph unicode="&#xd1;" horiz-adv-x="1902" d="M0 0l582 1638h659q127 0 166 -86q18 -39 18 -118v-975l420 1179h197l-574 -1638h-460q-82 0 -115 18q-90 39 -90 168v1039q2 51 8 90q6 31 14 47q23 49 68 70q18 8 41 14q45 8 98 8l27 76h-322l-534 -1530h-203zM709 1884q84 145 168 194.5t168.5 50.5t130.5 -7 q82 -16 217 -104.5t188 -106t84 -21.5q92 -18 138 7.5t69 48t37 49.5l110 -21q-45 -96 -130 -169.5t-177 -81t-153 5.5q-82 14 -220.5 97t-187.5 107.5t-94 32.5q-61 12 -95 0t-62 -30.5t-69 -73.5z" />
<glyph unicode="&#xd2;" horiz-adv-x="1853" d="M0 92v6q0 43 33 125l436 1227q20 51 43 86q43 66 113 90q41 12 90 12h1153q94 0 119 -47q10 -23 10 -43v-10q0 -41 -35 -129l-442 -1239q-14 -37 -39 -74q-68 -96 -195 -96h-1159q-127 0 -127 92zM553 102h188q164 0 236 127q25 51 61 160l338 944q27 74 27 109 q0 82 -100 98q-20 4 -62 4h-442l-27 -76h49q76 0 123 -24q43 -25 43 -80q0 -45 -14 -80zM933 2036q-38 127 81 159q129 39 250 -81t567 -302q-276 -70 -568 13.5t-330 210.5z" />
<glyph unicode="&#xd3;" horiz-adv-x="1853" d="M0 92v6q0 43 33 125l436 1227q20 51 43 86q43 66 113 90q41 12 90 12h1153q94 0 119 -47q10 -23 10 -43v-10q0 -41 -35 -129l-442 -1239q-14 -37 -39 -74q-68 -96 -195 -96h-1159q-127 0 -127 92zM553 102h188q164 0 236 127q25 51 61 160l338 944q27 74 27 109 q0 82 -100 98q-20 4 -62 4h-442l-27 -76h49q76 0 123 -24q43 -25 43 -80q0 -45 -14 -80zM883 1812q446 182 567 302t250 81q119 -33 81 -159.5t-330 -209.5t-568 -14z" />
<glyph unicode="&#xd4;" horiz-adv-x="1873" d="M0 92v6q0 43 33 125l436 1227q20 51 43 86q43 66 113 90q41 12 90 12h1153q94 0 119 -47q10 -23 10 -43v-10q0 -41 -35 -129l-442 -1239q-14 -37 -39 -74q-68 -96 -195 -96h-1159q-127 0 -127 92zM553 102h188q164 0 236 127q25 51 61 160l338 944q27 74 27 109 q0 82 -100 98q-20 4 -62 4h-442l-27 -76h49q76 0 123 -24q43 -25 43 -80q0 -45 -14 -80zM717 1815q420 160 547 266q96 80 180 78q86 2 149 -78q84 -106 443 -269q-256 -59 -496 13q-92 29 -149 61q-72 -33 -177 -61q-268 -72 -497 -10z" />
<glyph unicode="&#xd5;" horiz-adv-x="1853" d="M0 92v6q0 43 33 125l436 1227q20 51 43 86q43 66 113 90q41 12 90 12h1153q94 0 119 -47q10 -23 10 -43v-10q0 -41 -35 -129l-442 -1239q-14 -37 -39 -74q-68 -96 -195 -96h-1159q-127 0 -127 92zM553 102h188q164 0 236 127q25 51 61 160l338 944q27 74 27 109 q0 82 -100 98q-20 4 -62 4h-442l-27 -76h49q76 0 123 -24q43 -25 43 -80q0 -45 -14 -80zM739 1884q84 145 168 194.5t169 50.5t130 -7q82 -16 217.5 -104.5t188.5 -105t84 -22.5q92 -18 138 7.5t68.5 48t36.5 51.5l111 -23q-45 -96 -130 -169.5t-177 -81t-154 5.5 q-82 14 -220 97t-187 107.5t-97 32.5q-59 12 -93 0t-62.5 -29.5t-67.5 -74.5z" />
<glyph unicode="&#xd6;" horiz-adv-x="1845" d="M0 92v6q0 43 33 125l436 1227q20 51 43 86q43 66 113 90q41 12 90 12h1153q94 0 119 -47q10 -23 10 -43v-10q0 -41 -35 -129l-442 -1239q-14 -37 -39 -74q-68 -96 -195 -96h-1159q-127 0 -127 92zM553 102h188q164 0 236 127q25 51 61 160l338 944q27 74 27 109 q0 82 -100 98q-20 4 -62 4h-442l-27 -76h49q76 0 123 -24q43 -25 43 -80q0 -45 -14 -80zM788 1843q0 29 23 82q25 82 74 115q12 8 33 16q25 8 77 8h219q53 0 68 -4q14 -6 25 -16q16 -14 16 -43q0 -33 -25 -94q-27 -76 -75 -107q-16 -10 -33 -14q-23 -10 -68 -10h-233 q-55 0 -72 14q-29 14 -29 53zM1399 1841q0 31 22 84q25 82 76 113q12 10 33 16q23 10 78 10h219q51 0 65 -6q14 -4 25 -14q16 -14 16 -45t-24 -92q-27 -78 -76 -107q-14 -10 -33 -16q-22 -8 -67 -8h-234q-53 0 -69 12q-31 16 -31 53z" />
<glyph unicode="&#xd8;" horiz-adv-x="1845" d="M0 92v6q0 43 33 125l436 1227q20 51 43 86q43 66 113 90q41 12 90 12h770l254 367l108 -82l-196 -285h217q94 0 119 -47q10 -23 10 -43v-10q0 -41 -35 -129l-442 -1239q-14 -37 -39 -74q-68 -96 -195 -96h-770l-254 -367l-110 80l198 287h-223q-127 0 -127 92zM588 102 h174q164 0 235 127q25 51 62 160l293 817zM733 555l664 954q-27 23 -74 31q-20 4 -61 4h-443l-26 -76h49q76 0 123 -24q43 -25 43 -80q0 -45 -15 -80z" />
<glyph unicode="&#xd9;" horiz-adv-x="1894" d="M0 90v10q0 41 35 129l504 1409h538l-477 -1333q-27 -74 -27 -108q0 -82 101 -99q20 -4 61 -4h443l26 76h-49q-76 0 -123 25q-43 25 -43 79q0 45 15 80l456 1284h590l-522 -1450q-20 -51 -43 -86q-43 -66 -113 -90q-41 -12 -90 -12h-1153q-94 0 -119 47q-10 23 -10 43z M888 2036q-38 127 81 159q129 39 250 -81t567 -302q-276 -70 -568 13.5t-330 210.5z" />
<glyph unicode="&#xda;" horiz-adv-x="1894" d="M0 90v10q0 41 35 129l504 1409h538l-477 -1333q-27 -74 -27 -108q0 -82 101 -99q20 -4 61 -4h443l26 76h-49q-76 0 -123 25q-43 25 -43 79q0 45 15 80l456 1284h590l-522 -1450q-20 -51 -43 -86q-43 -66 -113 -90q-41 -12 -90 -12h-1153q-94 0 -119 47q-10 23 -10 43z M870 1812q446 182 567.5 302t250.5 81q119 -33 81 -159.5t-330 -209.5t-569 -14z" />
<glyph unicode="&#xdb;" horiz-adv-x="1902" d="M0 90v10q0 41 35 129l504 1409h538l-477 -1333q-27 -74 -27 -108q0 -82 101 -99q20 -4 61 -4h443l26 76h-49q-76 0 -123 25q-43 25 -43 79q0 45 15 80l456 1284h590l-522 -1450q-20 -51 -43 -86q-43 -66 -113 -90q-41 -12 -90 -12h-1153q-94 0 -119 47q-10 23 -10 43z M694 1815q420 160 547 266q96 80 180 78q86 2 150 -78q84 -106 442 -269q-256 -59 -495 13q-92 29 -150 61q-72 -33 -176 -61q-268 -72 -498 -10z" />
<glyph unicode="&#xdc;" horiz-adv-x="1902" d="M0 90v10q0 41 35 129l504 1409h538l-477 -1333q-27 -74 -27 -108q0 -82 101 -99q20 -4 61 -4h443l26 76h-49q-76 0 -123 25q-43 25 -43 79q0 45 15 80l456 1284h590l-522 -1450q-20 -51 -43 -86q-43 -66 -113 -90q-41 -12 -90 -12h-1153q-94 0 -119 47q-10 23 -10 43z M786 1843q0 29 23 82q25 82 74 115q12 8 32 16q25 8 78 8h219q53 0 68 -4q14 -6 25 -16q16 -14 16 -43q0 -33 -25 -94q-27 -76 -75 -107q-16 -10 -33 -14q-23 -10 -68 -10h-233q-55 0 -72 14q-29 14 -29 53zM1397 1841q0 31 22 84q25 82 76 113q12 10 33 16q23 10 78 10h219 q51 0 65 -6q14 -4 25 -14q16 -14 16 -45t-24 -92q-27 -78 -76 -107q-14 -10 -33 -16q-22 -8 -67 -8h-234q-53 0 -70 12q-31 16 -30 53z" />
<glyph unicode="&#xdd;" horiz-adv-x="1691" d="M-86 0l43 96h358q45 0 88 13.5t64.5 76t21.5 154.5v1298h566v-886q-6 -102 -13 -142q-6 -31 -14 -47q-23 -49 -67 -69q-18 -8 -41 -15q-45 -8 -99 -8l-26 -76h266l647 1243h156l-705 -1337h-2q-96 -176 -225 -238q-129 -63 -410 -63h-608zM797 1788q446 182 567 302 t250 81q119 -33 81 -160t-330 -210t-568 -13z" />
<glyph unicode="&#xdf;" horiz-adv-x="1835" d="M-135 -131l633 1771h1300q139 0 172 -53q18 -25 19 -55v-14q0 -37 -31 -121l-139 -410q-51 -111 -150 -149q-29 -10 -61 -17q86 -10 110 -49q18 -25 19 -57v-13q0 -37 -174 -528q-49 -111 -148 -149q-63 -25 -153 -25h-568l33 100h70q104 0 166 39q63 37 100 113 q137 393 141 424q2 18 2 26v7q0 72 -80 96q-31 8 -79 8h-502l-29 -80h51q113 0 154 -41q20 -27 20 -67q0 -53 -32 -148l-224 -608h-620zM766 1460h55q84 0 131 -28q39 -27 39 -80q0 -49 -18 -92l-119 -347h160q104 0 164 39q72 39 106 129q105 295 109 322q4 18 4 29v4 q0 72 -82 96q-31 8 -78 8h-442z" />
<glyph unicode="&#xe0;" horiz-adv-x="1656" d="M0 109v4q0 41 25 102l127 360q49 109 139 146q16 10 57 18q39 8 123 9h629l133 387h-141q-76 0 -101 -9q-39 -10 -59 -20q-82 -41 -117 -127q-18 -45 -45 -125h-498l68 201q10 25 27 53q47 70 118 98q55 23 160 23h1028q84 0 113 -31q25 -25 24 -61v-7q0 -41 -30 -118 l-293 -817q-18 -53 -41 -91q-12 -16 -37 -43q-64 -61 -168 -61h-1059q-111 0 -149 33q-33 27 -33 76zM530 197q0 -70 74 -93q29 -10 74 -10h459l26 76h-33q-131 0 -163 45q-18 23 -19 59q0 45 15 78l102 301h-195q-117 0 -190 -75q-31 -33 -43 -64q-18 -39 -43 -108 q-41 -113 -55 -160q-8 -31 -9 -49zM734 1577q-38 127 79 160q131 39 252 -81t567 -302q-279 -70 -569.5 13t-328.5 210z" />
<glyph unicode="&#xe1;" d="M0 109v4q0 41 25 102l127 360q49 109 139 146q16 10 57 18q39 8 123 9h629l133 387h-141q-76 0 -101 -9q-39 -10 -59 -20q-82 -41 -117 -127q-18 -45 -45 -125h-498l68 201q10 25 27 53q47 70 118 98q55 23 160 23h1028q84 0 113 -31q25 -25 24 -61v-7q0 -41 -30 -118 l-293 -817q-18 -53 -41 -91q-12 -16 -37 -43q-64 -61 -168 -61h-1059q-111 0 -149 33q-33 27 -33 76zM530 197q0 -70 74 -93q29 -10 74 -10h459l26 76h-33q-131 0 -163 45q-18 23 -19 59q0 45 15 78l102 301h-195q-117 0 -190 -75q-31 -33 -43 -64q-18 -39 -43 -108 q-41 -113 -55 -160q-8 -31 -9 -49zM725 1354q446 182 567 302t250 81q119 -33 81 -160t-330 -210t-568 -13z" />
<glyph unicode="&#xe2;" horiz-adv-x="1656" d="M0 109v4q0 41 25 102l127 360q49 109 139 146q16 10 57 18q39 8 123 9h629l133 387h-141q-76 0 -101 -9q-39 -10 -59 -20q-82 -41 -117 -127q-18 -45 -45 -125h-498l68 201q10 25 27 53q47 70 118 98q55 23 160 23h1028q84 0 113 -31q25 -25 24 -61v-7q0 -41 -30 -118 l-293 -817q-18 -53 -41 -91q-12 -16 -37 -43q-64 -61 -168 -61h-1059q-111 0 -149 33q-33 27 -33 76zM512 1376q420 160 547 266q96 80 180 78q86 2 150 -78q84 -106 442 -268q-256 -59 -496 12q-92 29 -149 62q-72 -33 -176 -62q-268 -72 -498 -10zM530 197q0 -70 74 -93 q29 -10 74 -10h459l26 76h-33q-131 0 -163 45q-18 23 -19 59q0 45 15 78l102 301h-195q-117 0 -190 -75q-31 -33 -43 -64q-18 -39 -43 -108q-41 -113 -55 -160q-8 -31 -9 -49z" />
<glyph unicode="&#xe3;" horiz-adv-x="1656" d="M0 109v4q0 41 25 102l127 360q49 109 139 146q16 10 57 18q39 8 123 9h629l133 387h-141q-76 0 -101 -9q-39 -10 -59 -20q-82 -41 -117 -127q-18 -45 -45 -125h-498l68 201q10 25 27 53q47 70 118 98q55 23 160 23h1028q84 0 113 -31q25 -25 24 -61v-7q0 -41 -30 -118 l-293 -817q-18 -53 -41 -91q-12 -16 -37 -43q-64 -61 -168 -61h-1059q-111 0 -149 33q-33 27 -33 76zM530 197q0 -70 74 -93q29 -10 74 -10h459l26 76h-33q-131 0 -163 45q-18 23 -19 59q0 45 15 78l102 301h-195q-117 0 -190 -75q-31 -33 -43 -64q-18 -39 -43 -108 q-41 -113 -55 -160q-8 -31 -9 -49zM610 1491q84 145 168 194.5t169 50.5t132 -7q80 -16 215.5 -104.5t188.5 -105t84 -22.5q92 -18 138 7.5t68.5 48t36.5 51.5l113 -23q-47 -96 -131 -170t-177 -81t-155 5q-82 16 -219 98.5t-187 107t-96 32.5q-61 12 -95 0t-61.5 -29.5 t-68.5 -75.5z" />
<glyph unicode="&#xe4;" horiz-adv-x="1656" d="M0 109v4q0 41 25 102l127 360q49 109 139 146q16 10 57 18q39 8 123 9h629l133 387h-141q-76 0 -101 -9q-39 -10 -59 -20q-82 -41 -117 -127q-18 -45 -45 -125h-498l68 201q10 25 27 53q47 70 118 98q55 23 160 23h1028q84 0 113 -31q25 -25 24 -61v-7q0 -41 -30 -118 l-293 -817q-18 -53 -41 -91q-12 -16 -37 -43q-64 -61 -168 -61h-1059q-111 0 -149 33q-33 27 -33 76zM530 197q0 -70 74 -93q29 -10 74 -10h459l26 76h-33q-131 0 -163 45q-18 23 -19 59q0 45 15 78l102 301h-195q-117 0 -190 -75q-31 -33 -43 -64q-18 -39 -43 -108 q-41 -113 -55 -160q-8 -31 -9 -49zM604 1405q0 29 23 82q25 82 73 115q12 8 33 16q25 8 78 8h219q53 0 68 -4q14 -6 24 -16q16 -14 17 -43q0 -33 -25 -95q-27 -76 -76 -106q-16 -10 -32 -14q-23 -11 -68 -11h-233q-55 0 -72 15q-29 14 -29 53zM1214 1403q0 31 23 84 q25 82 76 112q12 10 33 17q23 10 77 10h219q51 0 66 -6q14 -4 25 -14q16 -14 16 -45t-25 -93q-27 -78 -75 -106q-14 -10 -33 -16q-23 -9 -68 -9h-233q-53 0 -70 13q-31 16 -31 53z" />
<glyph unicode="&#xe5;" horiz-adv-x="1646" d="M0 109v4q0 41 25 102l127 360q49 109 139 146q16 10 57 18q39 8 123 9h629l133 387h-141q-76 0 -101 -9q-39 -10 -59 -20q-82 -41 -117 -127q-18 -45 -45 -125h-498l68 201q10 25 27 53q47 70 118 98q55 23 160 23h1028q84 0 113 -31q25 -25 24 -61v-7q0 -41 -30 -118 l-293 -817q-18 -53 -41 -91q-12 -16 -37 -43q-64 -61 -168 -61h-1059q-111 0 -149 33q-33 27 -33 76zM530 197q0 -70 74 -93q29 -10 74 -10h459l26 76h-33q-131 0 -163 45q-18 23 -19 59q0 45 15 78l102 301h-195q-117 0 -190 -75q-31 -33 -43 -64q-18 -39 -43 -108 q-41 -113 -55 -160q-8 -31 -9 -49zM891 1634q0 111 79.5 193t192.5 82t193 -80t80 -195q0 -111 -80 -188.5t-193 -77.5q-115 0 -193.5 77t-78.5 189zM1018 1634q0 -61 41 -102t104 -41q61 0 102.5 41t41.5 102q0 63 -41 104.5t-103 41.5q-61 0 -103 -42.5t-42 -103.5z" />
<glyph unicode="&#xe6;" horiz-adv-x="2545" d="M0 109v4q0 41 25 102l127 360q49 109 139 146q16 10 57 18q39 8 123 9h629l133 387h-141q-76 0 -101 -9q-39 -10 -59 -20q-82 -41 -117 -127q-18 -45 -45 -125h-498l68 201q10 25 27 53q47 70 118 98q55 23 160 23h1868q111 0 149 -33q33 -27 33 -78v-2q0 -41 -24 -102 l-129 -361q-47 -109 -138 -147q-18 -8 -57 -17q-39 -8 -123 -8h-629l-133 -387h142q76 0 100 8q39 10 59 21q82 41 115 127q20 45 47 125h498l-68 -201q-10 -25 -28 -55q-45 -68 -117 -96q-55 -23 -160 -23h-1868q-111 0 -149 33q-33 27 -33 76zM530 197q0 -70 74 -93 q29 -10 74 -10h459l26 76h-33q-131 0 -163 45q-18 23 -19 59q0 45 15 78l102 301h-195q-117 0 -190 -75q-31 -33 -43 -64q-18 -39 -43 -108q-41 -113 -55 -160q-8 -31 -9 -49zM1532 1059h33q131 0 164 -45q16 -23 16 -60q0 -45 -12 -77l-105 -302h197q117 0 190 76 q31 33 43 64q18 39 41 108q43 113 55 160q8 31 9 49q0 70 -72 92q-29 10 -74 11h-458z" />
<glyph unicode="&#xe7;" horiz-adv-x="1660" d="M0 88v12q0 41 35 127l301 832q18 45 43 78q67 92 194 92h1061q125 0 160 -43q23 -25 23 -68t-25 -119q-51 -145 -53 -145h-537q41 125 43 135q6 23 6 43v2q0 74 -82 94q-25 6 -71 7h-418l-29 -76h49q68 0 115 -19q51 -25 51 -82q0 -55 -28 -131l-258 -733h151 q166 0 238 135q10 25 57 146h537l-80 -211q-49 -104 -144 -141q-55 -23 -147 -23h-1067q-90 0 -117 49q-8 20 -8 39zM301 -451h49q76 0 123 25q43 25 43 80q0 45 -14 80q-27 73 -27 108q0 82 100 99q20 4 62 4h442l27 -76h-49q-76 0 -123 -25q-43 -25 -43 -80q0 -45 14 -79 q27 -74 27 -109q0 -82 -101 -98q-20 -4 -61 -4h-442z" />
<glyph unicode="&#xe8;" d="M0 92v6q0 41 31 119l293 817q18 53 41 90q10 16 36 43q62 62 166 62h1061q111 0 150 -33q33 -27 32 -78v-2q0 -41 -24 -102l-129 -361q-47 -109 -137 -147q-18 -8 -58 -17q-39 -8 -123 -8h-628l-133 -387h141q76 0 100 8q39 10 60 21q82 41 114 127q20 45 47 125h498 l-68 -201q-10 -25 -28 -55q-45 -68 -117 -96q-55 -23 -160 -23h-1030q-82 0 -110 31q-25 25 -25 61zM647 1059h33q131 0 164 -45q16 -23 16 -60q0 -45 -12 -77l-105 -302h197q117 0 190 76q31 33 44 64q18 39 40 108q43 113 56 160q8 31 8 49q0 70 -72 92q-29 10 -73 11 h-459zM720 1577q-38 127 79 160q131 39 252 -81t567 -302q-279 -70 -569.5 13t-328.5 210z" />
<glyph unicode="&#xe9;" d="M0 92v6q0 41 31 119l293 817q18 53 41 90q10 16 36 43q62 62 166 62h1061q111 0 150 -33q33 -27 32 -78v-2q0 -41 -24 -102l-129 -361q-47 -109 -137 -147q-18 -8 -58 -17q-39 -8 -123 -8h-628l-133 -387h141q76 0 100 8q39 10 60 21q82 41 114 127q20 45 47 125h498 l-68 -201q-10 -25 -28 -55q-45 -68 -117 -96q-55 -23 -160 -23h-1030q-82 0 -110 31q-25 25 -25 61zM647 1059h33q131 0 164 -45q16 -23 16 -60q0 -45 -12 -77l-105 -302h197q117 0 190 76q31 33 44 64q18 39 40 108q43 113 56 160q8 31 8 49q0 70 -72 92q-29 10 -73 11 h-459zM705 1354q446 182 567 302t250 81q119 -33 81 -160t-330 -210t-568 -13z" />
<glyph unicode="&#xea;" horiz-adv-x="1646" d="M0 92v6q0 41 31 119l293 817q18 53 41 90q10 16 36 43q62 62 166 62h1061q111 0 150 -33q33 -27 32 -78v-2q0 -41 -24 -102l-129 -361q-47 -109 -137 -147q-18 -8 -58 -17q-39 -8 -123 -8h-628l-133 -387h141q76 0 100 8q39 10 60 21q82 41 114 127q20 45 47 125h498 l-68 -201q-10 -25 -28 -55q-45 -68 -117 -96q-55 -23 -160 -23h-1030q-82 0 -110 31q-25 25 -25 61zM498 1376q420 160 546 266q97 80 181 78q86 2 149 -78q84 -106 443 -268q-256 -59 -496 12q-92 29 -150 62q-72 -33 -176 -62q-268 -72 -497 -10zM647 1059h33 q131 0 164 -45q16 -23 16 -60q0 -45 -12 -77l-105 -302h197q117 0 190 76q31 33 44 64q18 39 40 108q43 113 56 160q8 31 8 49q0 70 -72 92q-29 10 -73 11h-459z" />
<glyph unicode="&#xeb;" horiz-adv-x="1646" d="M0 92v6q0 41 31 119l293 817q18 53 41 90q10 16 36 43q62 62 166 62h1061q111 0 150 -33q33 -27 32 -78v-2q0 -41 -24 -102l-129 -361q-47 -109 -137 -147q-18 -8 -58 -17q-39 -8 -123 -8h-628l-133 -387h141q76 0 100 8q39 10 60 21q82 41 114 127q20 45 47 125h498 l-68 -201q-10 -25 -28 -55q-45 -68 -117 -96q-55 -23 -160 -23h-1030q-82 0 -110 31q-25 25 -25 61zM592 1405q0 29 22 82q25 82 74 115q12 8 33 16q25 8 78 8h219q53 0 67 -4q14 -6 25 -16q16 -14 16 -43q0 -33 -24 -95q-27 -76 -76 -106q-16 -10 -33 -14q-22 -11 -67 -11 h-234q-55 0 -71 15q-29 14 -29 53zM647 1059h33q131 0 164 -45q16 -23 16 -60q0 -45 -12 -77l-105 -302h197q117 0 190 76q31 33 44 64q18 39 40 108q43 113 56 160q8 31 8 49q0 70 -72 92q-29 10 -73 11h-459zM1202 1403q0 31 23 84q25 82 75 112q12 10 33 17q23 10 78 10 h219q51 0 66 -6q14 -4 24 -14q16 -14 17 -45q0 -31 -25 -93q-27 -78 -76 -106q-14 -10 -32 -16q-23 -9 -68 -9h-233q-53 0 -70 13q-31 16 -31 53z" />
<glyph unicode="&#xec;" horiz-adv-x="776" d="M0 98v6q0 43 29 117l356 1016h379q104 0 127 -55q10 -18 10 -45q0 -45 -29 -123l-356 -1014h-352q-70 0 -94 8q-70 20 -70 90zM331 1577q-38 127 81 160q129 39 250 -81t567 -302q-276 -70 -568 13t-330 210z" />
<glyph unicode="&#xed;" horiz-adv-x="819" d="M0 98v6q0 43 29 117l356 1016h379q104 0 127 -55q10 -18 10 -45q0 -45 -29 -123l-356 -1014h-352q-70 0 -94 8q-70 20 -70 90zM268 1354q446 182 567 302t250 81q119 -33 81 -160t-329.5 -210t-568.5 -13z" />
<glyph unicode="&#xee;" horiz-adv-x="1026" d="M0 98v6q0 43 29 117l356 1016h379q104 0 127 -55q10 -18 10 -45q0 -45 -29 -123l-356 -1014h-352q-70 0 -94 8q-70 20 -70 90zM55 1376q365 131 547 266q96 80 180 78q86 2 150 -78q84 -106 442 -268q-256 -59 -495 12q-92 29 -150 62q-72 -33 -176 -62 q-268 -72 -498 -10z" />
<glyph unicode="&#xef;" horiz-adv-x="1026" d="M0 98v6q0 43 29 117l356 1016h379q104 0 127 -55q10 -18 10 -45q0 -45 -29 -123l-356 -1014h-352q-70 0 -94 8q-70 20 -70 90zM162 1405q0 29 22 82q25 82 74 115q12 8 33 16q25 8 78 8h219q53 0 67 -4q14 -6 25 -16q16 -14 16 -43q0 -33 -24 -95q-27 -76 -76 -106 q-16 -10 -33 -14q-22 -11 -67 -11h-234q-55 0 -72 15q-29 14 -28 53zM772 1403q0 31 23 84q25 82 75 112q12 10 33 17q23 10 78 10h219q51 0 66 -6q14 -4 24 -14q16 -14 17 -45q0 -31 -25 -93q-27 -78 -76 -106q-14 -10 -32 -16q-23 -9 -68 -9h-234q-53 0 -69 13 q-31 16 -31 53z" />
<glyph unicode="&#xf1;" horiz-adv-x="1785" d="M0 0l379 1063q14 37 33 65q67 101 202 101h1164q92 0 118 -47q10 -20 11 -49q0 -31 -15 -78l-376 -1055h-549q338 940 346 967q12 45 12 63v4q0 70 -78 92q-27 8 -59 9h-469l-27 -76h51q66 0 113 -19q51 -25 51 -84v-6q0 -41 -24 -104l-299 -846h-584zM610 1491 q84 145 168 194.5t169 50.5t132 -7q80 -16 215.5 -104.5t188.5 -105t84 -22.5q92 -18 138 7.5t68.5 48t36.5 51.5l113 -23q-47 -96 -131 -170t-177 -81t-155 5q-82 16 -219 98.5t-187 107t-96 32.5q-61 12 -95 0t-61.5 -29.5t-68.5 -75.5z" />
<glyph unicode="&#xf2;" horiz-adv-x="1667" d="M0 92v4q0 45 33 125l291 819q20 51 43 86q43 66 112 88q41 15 90 15h1112q94 0 119 -49q10 -20 10 -43v-9q0 -41 -34 -129l-297 -829q-14 -39 -37 -74q-70 -96 -197 -96h-1118q-127 0 -127 92zM573 102h189q164 0 235 127q25 51 62 158l192 537q27 74 27 108 q0 82 -100 98q-20 4 -62 5h-442l-27 -76h49q78 0 123 -25q43 -25 43 -80q0 -45 -14 -77zM732 1577q-38 127 79 160q131 39 252 -81t567 -302q-279 -70 -569.5 13t-328.5 210z" />
<glyph unicode="&#xf3;" horiz-adv-x="1667" d="M0 92v4q0 45 33 125l291 819q20 51 43 86q43 66 112 88q41 15 90 15h1112q94 0 119 -49q10 -20 10 -43v-9q0 -41 -34 -129l-297 -829q-14 -39 -37 -74q-70 -96 -197 -96h-1118q-127 0 -127 92zM573 102h189q164 0 235 127q25 51 62 158l192 537q27 74 27 108 q0 82 -100 98q-20 4 -62 5h-442l-27 -76h49q78 0 123 -25q43 -25 43 -80q0 -45 -14 -77zM723 1354q446 182 567 302t250 81q119 -33 81 -160t-330 -210t-568 -13z" />
<glyph unicode="&#xf4;" horiz-adv-x="1677" d="M0 92v4q0 45 33 125l291 819q20 51 43 86q43 66 112 88q41 15 90 15h1112q94 0 119 -49q10 -20 10 -43v-9q0 -41 -34 -129l-297 -829q-14 -39 -37 -74q-70 -96 -197 -96h-1118q-127 0 -127 92zM510 1376q420 160 547 266q96 80 180 78q86 2 149 -78q84 -106 443 -268 q-256 -59 -496 12q-92 29 -149 62q-72 -33 -176 -62q-268 -72 -498 -10zM573 102h189q164 0 235 127q25 51 62 158l192 537q27 74 27 108q0 82 -100 98q-20 4 -62 5h-442l-27 -76h49q78 0 123 -25q43 -25 43 -80q0 -45 -14 -77z" />
<glyph unicode="&#xf5;" horiz-adv-x="1667" d="M0 92v4q0 45 33 125l291 819q20 51 43 86q43 66 112 88q41 15 90 15h1112q94 0 119 -49q10 -20 10 -43v-9q0 -41 -34 -129l-297 -829q-14 -39 -37 -74q-70 -96 -197 -96h-1118q-127 0 -127 92zM539 1489q82 145 167 195.5t168.5 50.5t131.5 -9q80 -14 216 -102 t188 -105.5t83 -23.5q92 -16 139 9.5t69 47t38 50.5l110 -21q-45 -98 -130 -172t-178 -80t-152 4q-84 16 -221.5 98t-186.5 108t-96 34q-61 10 -94 -2t-62 -29.5t-70 -75.5zM573 102h189q164 0 235 127q25 51 62 158l192 537q27 74 27 108q0 82 -100 98q-20 4 -62 5h-442 l-27 -76h49q78 0 123 -25q43 -25 43 -80q0 -45 -14 -77z" />
<glyph unicode="&#xf6;" horiz-adv-x="1667" d="M0 92v4q0 45 33 125l291 819q20 51 43 86q43 66 112 88q41 15 90 15h1112q94 0 119 -49q10 -20 10 -43v-9q0 -41 -34 -129l-297 -829q-14 -39 -37 -74q-70 -96 -197 -96h-1118q-127 0 -127 92zM573 102h189q164 0 235 127q25 51 62 158l192 537q27 74 27 108 q0 82 -100 98q-20 4 -62 5h-442l-27 -76h49q78 0 123 -25q43 -25 43 -80q0 -45 -14 -77zM602 1405q0 29 23 82q25 82 73 115q12 8 33 16q25 8 78 8h219q53 0 68 -4q14 -6 24 -16q16 -14 17 -43q0 -33 -25 -95q-27 -76 -76 -106q-16 -10 -32 -14q-23 -11 -68 -11h-234 q-55 0 -71 15q-29 14 -29 53zM1212 1403q0 31 23 84q25 82 76 112q12 10 32 17q23 10 78 10h219q51 0 66 -6q14 -4 25 -14q16 -14 16 -45t-25 -93q-27 -78 -75 -106q-14 -10 -33 -16q-23 -9 -68 -9h-233q-53 0 -70 13q-31 16 -31 53z" />
<glyph unicode="&#xf7;" horiz-adv-x="1021" d="M-100 565l34 99h1338l-35 -99h-1337zM0 96q0 47 37 140q39 113 113 157q23 14 49 23q32 12 100 12h346q80 0 105 -18q43 -23 43 -80q0 -43 -33 -123q-37 -121 -111 -168q-18 -14 -49 -25q-35 -14 -115 -14h-325q-78 0 -99 8q-20 8 -36 23q-25 23 -25 65zM330 897 q0 47 37 139q39 113 112 158q23 14 49 23q33 12 101 12h346q80 0 104 -19q43 -23 43 -80q0 -43 -32 -122q-37 -121 -111 -168q-18 -14 -49 -25q-35 -14 -115 -14h-326q-78 0 -98 8t-37 22q-25 23 -24 66z" />
<glyph unicode="&#xf8;" horiz-adv-x="1677" d="M0 92v4q0 45 33 125l291 819q20 51 43 86q43 66 112 88q41 14 90 15h680l219 315l109 -82l-162 -233h266q94 0 119 -49q10 -20 10 -43v-9q0 -41 -34 -129l-297 -829q-14 -39 -37 -74q-70 -96 -197 -96h-680l-219 -315l-110 79l163 236h-272q-127 0 -127 92zM635 102h127 q164 0 235 127q25 51 62 158l192 537q27 71 27 106zM647 1059h49q78 0 123 -25q43 -25 43 -80q0 -45 -14 -77l-166 -467l500 720h-4q-20 4 -62 5h-442z" />
<glyph unicode="&#xf9;" horiz-adv-x="1785" d="M0 96q0 31 14 78l377 1055h549q-338 -940 -346 -967q-12 -45 -12 -63v-4q0 -70 77 -93q27 -8 60 -8h469l26 76h-51q-66 0 -112 18q-51 25 -52 84v7q0 41 25 104l299 846h584l-441 -1229h-1337q-92 0 -119 47q-10 20 -10 49zM736 1577q-38 127 79 160q131 39 252 -81 t567 -302q-279 -70 -569.5 13t-328.5 210z" />
<glyph unicode="&#xfa;" horiz-adv-x="1796" d="M0 96q0 31 14 78l377 1055h549q-338 -940 -346 -967q-12 -45 -12 -63v-4q0 -70 77 -93q27 -8 60 -8h469l26 76h-51q-66 0 -112 18q-51 25 -52 84v7q0 41 25 104l299 846h584l-441 -1229h-1337q-92 0 -119 47q-10 20 -10 49zM727 1354q446 182 567 302t250 81 q119 -33 81 -160t-329.5 -210t-568.5 -13z" />
<glyph unicode="&#xfb;" horiz-adv-x="1796" d="M0 96q0 31 14 78l377 1055h549q-338 -940 -346 -967q-12 -45 -12 -63v-4q0 -70 77 -93q27 -8 60 -8h469l26 76h-51q-66 0 -112 18q-51 25 -52 84v7q0 41 25 104l299 846h584l-441 -1229h-1337q-92 0 -119 47q-10 20 -10 49zM512 1376q420 160 547 266q96 80 180 78 q86 2 150 -78q84 -106 442 -268q-256 -59 -496 12q-92 29 -149 62q-72 -33 -176 -62q-268 -72 -498 -10z" />
<glyph unicode="&#xfc;" horiz-adv-x="1785" d="M0 96q0 31 14 78l377 1055h549q-338 -940 -346 -967q-12 -45 -12 -63v-4q0 -70 77 -93q27 -8 60 -8h469l26 76h-51q-66 0 -112 18q-51 25 -52 84v7q0 41 25 104l299 846h584l-441 -1229h-1337q-92 0 -119 47q-10 20 -10 49zM606 1405q0 29 23 82q25 82 73 115q12 8 33 16 q25 8 78 8h219q53 0 68 -4q14 -6 24 -16q16 -14 17 -43q0 -33 -25 -95q-27 -76 -76 -106q-16 -10 -32 -14q-23 -11 -68 -11h-233q-55 0 -72 15q-29 14 -29 53zM1217 1403q0 31 22 84q25 82 76 112q12 10 33 17q23 10 77 10h220q51 0 65 -6q14 -4 25 -14q16 -14 16 -45 t-25 -93q-27 -78 -75 -106q-14 -10 -33 -16q-23 -9 -68 -9h-233q-53 0 -70 13q-31 16 -30 53z" />
<glyph unicode="&#xfd;" horiz-adv-x="1345" d="M-424 -299l43 96h358q45 0 88.5 13.5t65 76t21.5 154.5v1190h565v-778q-6 -102 -12 -142q-6 -31 -15 -47q-23 -49 -67 -69q-18 -8 -41 -15q-45 -8 -99 -8l-26 -76h266l647 1135h156l-705 -1229h-2q-96 -176 -225 -238q-129 -63 -410 -63h-608zM504 1354q446 182 567 302 t250 81q119 -33 81 -160t-330 -210t-568 -13z" />
<glyph unicode="&#xff;" horiz-adv-x="1343" d="M-426 -299l43 96h358q45 0 88 13.5t65 76t22 154.5v1190h565v-778q-6 -102 -13 -142q-6 -31 -14 -47q-23 -49 -67 -69q-18 -8 -41 -15q-45 -8 -99 -8l-26 -76h266l647 1135h156l-705 -1229h-2q-96 -176 -225 -238q-129 -63 -410 -63h-608zM334 1407q0 29 22 82 q25 82 74 115q12 8 33 16q25 8 78 8h219q53 0 67 -4q14 -6 25 -16q16 -14 16 -43q0 -33 -24 -95q-27 -76 -76 -106q-16 -10 -33 -14q-22 -11 -67 -11h-234q-55 0 -72 15q-29 14 -28 53zM944 1405q0 31 23 84q25 82 75 113q12 10 33 16q23 10 78 10h219q51 0 66 -6 q14 -4 24 -14q16 -14 17 -45q0 -31 -25 -93q-27 -78 -76 -106q-14 -10 -32 -16q-23 -9 -68 -9h-234q-53 0 -69 13q-31 16 -31 53z" />
<glyph unicode="&#x152;" horiz-adv-x="2869" d="M0 92v6q0 43 33 125l436 1227q20 51 43 86q43 66 113 90q41 12 90 12h2105q139 0 172 -51q18 -25 19 -57v-12q0 -37 -31 -123l-49 -150h-568q45 127 52 158q2 18 2 27v6q0 72 -80 96q-31 8 -80 8h-442l-27 -80h55q84 0 131 -28q39 -27 39 -82q0 -47 -18 -90l-119 -349 h754l-35 -98h-1028l-29 -80h49q113 0 154 -43q23 -27 22 -67q0 -51 -32 -148l-138 -375h226q104 0 163 39q72 39 107 129q20 49 47 125h524q-68 -205 -75 -219q-51 -111 -150 -149q-61 -25 -151 -25h-2157q-127 0 -127 92zM573 102h189q164 0 235 127q25 51 62 160l338 944 q27 74 26 109q0 82 -100 98q-20 4 -61 4h-443l-26 -76h49q76 0 123 -24q43 -25 43 -80q0 -45 -15 -80z" />
<glyph unicode="&#x153;" horiz-adv-x="2654" d="M0 94v4q0 45 33 125l291 819q20 51 43 86q43 66 112 89q41 12 90 12h2030q111 0 149 -33q33 -27 33 -78v-2q0 -41 -24 -102l-129 -361q-47 -109 -138 -147q-18 -8 -57 -17q-39 -8 -123 -8h-629l-133 -387h142q76 0 100 8q39 10 59 21q82 41 115 127q20 45 47 125h498 l-68 -201q-10 -25 -28 -55q-45 -68 -117 -96q-55 -23 -160 -23h-2009q-127 2 -127 94zM573 104h189q164 0 235 127q25 51 62 158l192 537q27 74 27 108q0 82 -100 99q-20 4 -62 4h-442l-27 -76h49q78 0 123 -25q43 -25 43 -80q0 -45 -14 -77zM1618 1059h33q131 0 164 -45 q16 -23 16 -60q0 -45 -12 -77l-105 -302h197q117 0 190 76q31 33 43 64q18 39 41 108q43 113 56 160q8 31 8 49q0 70 -72 92q-29 10 -74 11h-458z" />
<glyph unicode="&#x178;" horiz-adv-x="1744" d="M-88 0l43 96h358q45 0 88 13.5t64.5 76t21.5 154.5v1298h566v-886q-6 -102 -13 -142q-6 -31 -14 -47q-23 -49 -68 -69q-18 -8 -40 -15q-45 -8 -99 -8l-26 -76h266l647 1243h156l-705 -1337h-2q-96 -176 -225 -238q-129 -63 -410 -63h-608zM657 1843q0 29 23 82 q25 82 74 115q12 8 32 16q25 8 78 8h219q53 0 68 -4q14 -6 25 -16q16 -14 16 -43q0 -33 -25 -94q-27 -76 -75 -107q-16 -10 -33 -14q-23 -10 -68 -10h-233q-55 0 -72 14q-29 14 -29 53zM1268 1841q0 31 22 84q25 82 76 113q12 10 33 16q23 10 78 10h219q51 0 65 -6 q14 -4 25 -14q16 -14 16 -45t-24 -92q-27 -78 -76 -107q-14 -10 -33 -16q-22 -8 -67 -8h-234q-53 0 -70 12q-31 16 -30 53z" />
<glyph unicode="&#x2c6;" horiz-adv-x="1228" d="M0 1376q420 160 547 266q96 80 180 78q86 2 150 -78q84 -106 442 -268q-256 -59 -496 12q-92 29 -149 62q-72 -33 -176 -62q-268 -72 -498 -10z" />
<glyph unicode="&#x2dc;" horiz-adv-x="1232" d="M0 1491q84 143 168 193.5t169 51.5t130 -7q82 -16 217 -104.5t188.5 -106t83.5 -21.5q92 -18 138.5 7.5t69 48t36.5 49.5l111 -21q-45 -96 -130 -170t-177.5 -81t-153.5 5q-82 14 -220 97.5t-187.5 108t-96.5 32.5q-59 12 -93 0t-62.5 -30.5t-67.5 -74.5z" />
<glyph unicode="&#x2000;" horiz-adv-x="1152" />
<glyph unicode="&#x2001;" horiz-adv-x="2304" />
<glyph unicode="&#x2002;" horiz-adv-x="1152" />
<glyph unicode="&#x2003;" horiz-adv-x="2304" />
<glyph unicode="&#x2004;" horiz-adv-x="768" />
<glyph unicode="&#x2005;" horiz-adv-x="576" />
<glyph unicode="&#x2006;" horiz-adv-x="384" />
<glyph unicode="&#x2007;" horiz-adv-x="384" />
<glyph unicode="&#x2008;" horiz-adv-x="288" />
<glyph unicode="&#x2009;" horiz-adv-x="460" />
<glyph unicode="&#x200a;" horiz-adv-x="128" />
<glyph unicode="&#x2010;" horiz-adv-x="866" d="M102 555l35 109h764l-35 -109h-764z" />
<glyph unicode="&#x2011;" horiz-adv-x="866" d="M102 555l35 109h764l-35 -109h-764z" />
<glyph unicode="&#x2012;" horiz-adv-x="866" d="M102 555l35 109h764l-35 -109h-764z" />
<glyph unicode="&#x2013;" horiz-adv-x="1488" d="M82 565l35 99h1480l-34 -99h-1481z" />
<glyph unicode="&#x2014;" horiz-adv-x="2052" d="M82 565l35 99h2015l-35 -99h-2015z" />
<glyph unicode="&#x2018;" horiz-adv-x="679" d="M0 1157q0 43 33 123q27 90 76 139q8 10 16 19q82 84 278 149q293 94 574 17q-307 -33 -463 -117h119q78 0 98 -8t37 -23q25 -23 25 -65q0 -47 -37 -140q-39 -113 -113 -157q-23 -14 -49 -23q-33 -12 -100 -12h-347q-80 0 -104 18q-43 23 -43 80z" />
<glyph unicode="&#x2019;" horiz-adv-x="829" d="M0 1094q307 33 463 116h-119q-78 0 -98 9q-20 8 -37 22q-25 23 -25 66q0 47 37 139q39 113 113 158q23 14 49 22q33 12 100 12h346q80 0 105 -18q43 -23 43 -80q0 -43 -33 -123q-27 -90 -76 -139q-8 -10 -16 -18q-82 -84 -279 -150q-293 -94 -573 -16z" />
<glyph unicode="&#x201a;" horiz-adv-x="851" d="M0 -117q307 35 463 117h-119q-78 0 -98 8t-37 23q-25 23 -25 65q0 47 37 140q39 113 113 157q23 14 49 23q33 12 100 12h346q80 0 105 -18q43 -23 43 -80q0 -43 -33 -123q-27 -90 -76 -139q-8 -10 -16 -19q-82 -84 -279 -149q-293 -94 -573 -17z" />
<glyph unicode="&#x201c;" horiz-adv-x="1439" d="M0 1157q0 43 33 123q27 90 76 139q8 10 16 19q82 84 278 149q293 94 574 17q-307 -33 -463 -117h119q78 0 98 -8t37 -23q25 -23 25 -65q0 -47 -37 -140q-39 -113 -113 -157q-23 -14 -49 -23q-33 -12 -100 -12h-347q-80 0 -104 18q-43 23 -43 80zM782 1157q0 43 33 123 q27 90 76 139q8 10 16 19q82 84 279 149q293 94 573 17q-307 -33 -463 -117h119q78 0 98 -8t37 -23q25 -23 25 -65q0 -47 -37 -140q-39 -113 -113 -157q-23 -14 -49 -23q-33 -12 -100 -12h-346q-80 0 -105 18q-43 23 -43 80z" />
<glyph unicode="&#x201d;" d="M0 1094q307 33 463 116h-119q-78 0 -98 9q-20 8 -37 22q-25 23 -25 66q0 47 37 139q39 113 113 158q23 14 49 22q33 12 100 12h346q80 0 105 -18q43 -23 43 -80q0 -43 -33 -123q-27 -90 -76 -139q-8 -10 -16 -18q-82 -84 -279 -150q-293 -94 -573 -16zM782 1094 q307 33 463 116h-119q-78 0 -98 9q-20 8 -37 22q-25 23 -24 66q0 47 37 139q39 113 112 158q23 14 49 22q33 12 101 12h346q80 0 104 -18q43 -23 43 -80q0 -43 -33 -123q-26 -90 -75 -139q-8 -10 -17 -18q-82 -84 -278 -150q-293 -94 -574 -16z" />
<glyph unicode="&#x201e;" horiz-adv-x="1640" d="M0 -115q307 33 463 115h-119q-78 0 -98 8t-37 23q-25 23 -25 65q0 47 37 140q39 113 113 157q23 14 49 23q33 12 100 12h346q80 0 105 -18q43 -23 43 -80q0 -43 -33 -123q-27 -90 -76 -139q-8 -10 -16 -19q-82 -82 -279 -147q-293 -94 -573 -17zM782 -115q307 33 463 115 h-119q-78 0 -98 8t-37 23q-25 23 -24 65q0 47 37 140q39 113 112 157q23 14 49 23q33 12 101 12h346q80 0 104 -18q43 -23 43 -80q0 -43 -33 -123q-26 -90 -75 -139q-8 -10 -17 -19q-82 -82 -278 -147q-293 -94 -574 -17z" />
<glyph unicode="&#x2022;" horiz-adv-x="679" d="M0 659q0 47 37 140q39 113 113 157q23 14 49 23q32 12 100 12h346q80 0 105 -18q43 -23 43 -80q0 -43 -33 -123q-37 -121 -111 -168q-18 -14 -49 -24q-35 -14 -115 -15h-325q-78 0 -99 8q-20 8 -36 23q-25 23 -25 65z" />
<glyph unicode="&#x2026;" horiz-adv-x="2455" d="M0 96q0 47 37 140q39 113 113 157q23 14 49 23q32 12 100 12h346q80 0 105 -18q43 -23 43 -80q0 -43 -33 -123q-37 -121 -111 -168q-18 -14 -49 -25q-35 -14 -115 -14h-325q-78 0 -99 8q-20 8 -36 23q-25 23 -25 65zM897 96q0 47 37 140q39 113 113 157q23 14 49 23 q32 12 100 12h346q80 0 105 -18q43 -23 43 -80q0 -43 -33 -123q-37 -121 -111 -168q-18 -14 -49 -25q-35 -14 -115 -14h-325q-78 0 -99 8q-20 8 -36 23q-25 23 -25 65zM1792 96q0 47 37 140q39 113 113 157q23 14 49 23q32 12 100 12h346q80 0 105 -18q43 -23 43 -80 q0 -43 -33 -123q-37 -121 -111 -168q-18 -14 -49 -25q-35 -14 -115 -14h-325q-78 0 -99 8q-20 8 -36 23q-25 23 -25 65z" />
<glyph unicode="&#x202f;" horiz-adv-x="460" />
<glyph unicode="&#x2039;" horiz-adv-x="819" d="M0 631l68 196l870 320l-78 -215l-596 -219l443 -215l-64 -179z" />
<glyph unicode="&#x203a;" horiz-adv-x="878" d="M0 319l78 216l596 219l-443 215l64 178l643 -311l-68 -197z" />
<glyph unicode="&#x205f;" horiz-adv-x="576" />
<glyph unicode="&#x20ac;" horiz-adv-x="1894" d="M0 657q17 52 33 99h1575l-35 -99h-1028l-29 -79h49q113 0 154 -43q23 -27 22 -68q0 -51 -32 -148l-80 -219h225q104 0 164 39q72 39 106 129q20 49 47 125h525q-68 -205 -76 -219q-51 -111 -150 -149q-61 -25 -151 -25h-1165q-92 0 -121 51q-10 23 -10 45v8q0 45 38 144 l146 409h-207zM70 870q16 51 32 99h215l179 501q16 41 45 78q70 90 198 90h1116q139 0 173 -51q18 -25 18 -57v-12q0 -37 -31 -123l-49 -150h-567q45 127 51 158q2 18 2 27v6q0 72 -80 96q-31 8 -80 8h-442l-27 -80h56q84 0 131 -28q39 -27 39 -82q0 -47 -19 -90l-102 -291 h745l-35 -99h-1568z" />
<glyph unicode="&#x2122;" horiz-adv-x="1968" d="M90 1599l16 46h828l-16 -46h-367l-12 -36h24q39 0 60 -13q18 -12 18 -39q0 -20 -8 -41l-201 -575h-201q-43 0 -55 23q-4 10 -4 22v2q0 20 16 66l211 591h-309zM723 895l266 750h264q57 0 76 -39q8 -18 8 -56v-446l193 541h264q57 0 76 -39q8 -18 8 -56v-655h-192 q-37 0 -52 8q-41 18 -41 76v475q0 25 4 43q2 12 7 21q10 23 30 32q8 2 19 6q20 4 45 5l12 34h-111l-243 -700h-209q-39 0 -53 8q-41 18 -41 76v475q0 25 4 43q2 12 6 21q10 23 31 32q8 2 18 6q20 4 45 5l12 34h-110l-244 -700h-92z" />
<glyph unicode="&#xe000;" horiz-adv-x="1228" d="M0 0v1229h1229v-1229h-1229z" />
</font>
</defs>
</svg>
